<svg width="1280" height="773" viewBox="0 0 1280 773" fill="none" xmlns="http://www.w3.org/2000/svg">
<g clip-path="url(#clip0_204_199)">
<path d="M1280 0H0V773H1280V0Z" fill="#FFE3B3"/>
<path d="M42.9564 43.0989C47.7477 44.1611 52.8042 39.7952 54.2296 33.3653C55.6551 26.9358 52.9176 20.8404 48.1266 19.7783C43.3366 18.7163 38.2793 23.0835 36.8539 29.5132C35.4285 35.9432 38.1667 42.037 42.9564 43.0989Z" fill="#FFECCC"/>
<path d="M66.2122 60.1544C66.0878 59.872 65.9677 59.6053 65.9198 59.3882C64.8992 54.7991 60.6608 48.7161 52.0603 46.6814L51.7287 46.6061C43.2339 44.7227 36.9189 48.1938 33.8405 52.072C33.7345 52.2046 33.531 52.3618 33.3154 52.5282C33.0612 52.7225 32.8075 52.9229 32.5784 53.151C30.1758 55.5341 28.5712 58.4612 28.0623 61.3929C27.5201 64.5049 28.2615 67.2653 30.1433 69.1635C30.9039 69.9298 31.7973 70.4292 32.8014 70.6517C34.8717 71.1107 37.0256 70.3647 39.5216 69.5012C41.1091 68.95 42.7483 68.3817 44.498 68.0722C44.6908 68.053 45.4465 68.1257 46.65 68.3925C48.081 68.7097 49.0804 69.0647 49.2832 69.1894C50.6942 70.2267 51.8672 71.4368 53.0021 72.6057C54.7411 74.3998 56.3833 76.0927 58.47 76.5553C59.3655 76.7539 60.2858 76.7099 61.2079 76.4263C66.2946 74.8611 68.7161 68.0103 66.6072 61.1554C66.5012 60.8113 66.3579 60.4803 66.2122 60.1544Z" fill="#FFECCC"/>
<path d="M61.4309 47.1946C66.2199 48.2563 71.2774 43.8907 72.7028 37.4608C74.1283 31.0311 71.3901 24.9356 66.6011 23.8739C61.8093 22.8116 56.7525 27.1788 55.3271 33.6085C53.9017 40.0387 56.6391 46.1322 61.4309 47.1946Z" fill="#FFECCC"/>
<path d="M77.0268 44.3705C73.1868 43.5193 69.2984 46.8355 68.1715 51.9194C67.0449 57.0012 69.1689 61.6507 73.0071 62.5017C76.845 63.3524 80.737 60.0366 81.8637 54.9548C82.9906 49.8711 80.8663 45.2219 77.0268 44.3705Z" fill="#FFECCC"/>
<path d="M35.5714 44.6922C36.6986 39.6083 34.5743 34.9591 30.7361 34.1082C26.8976 33.2572 23.007 36.5729 21.8799 41.6568C20.7533 46.7384 22.878 51.3882 26.7164 52.2391C30.5548 53.0901 34.4447 49.7738 35.5714 44.6922Z" fill="#FFECCC"/>
<path d="M171.311 145.263C169.592 149.859 173.211 155.474 179.38 157.781C185.549 160.087 191.966 158.225 193.685 153.628C195.403 149.032 191.782 143.417 185.613 141.11C179.444 138.804 173.029 140.667 171.311 145.263Z" fill="#FFECCC"/>
<path d="M151.185 165.918C151.482 165.834 151.762 165.753 151.984 165.736C156.671 165.363 163.284 162.013 166.496 153.779L166.617 153.461C169.664 145.311 167.106 138.575 163.694 134.986C163.577 134.863 163.45 134.64 163.315 134.403C163.158 134.124 162.995 133.845 162.801 133.586C160.775 130.876 158.1 128.879 155.268 127.967C152.261 126.997 149.425 127.347 147.283 128.947C146.418 129.593 145.8 130.408 145.439 131.372C144.697 133.358 145.136 135.595 145.643 138.187C145.968 139.835 146.303 141.538 146.366 143.313C146.358 143.507 146.181 144.245 145.749 145.4C145.236 146.773 144.745 147.713 144.594 147.897C143.37 149.15 142.008 150.143 140.693 151.104C138.675 152.576 136.769 153.967 136.021 155.969C135.7 156.828 135.615 157.746 135.767 158.698C136.609 163.953 143.057 167.305 150.139 166.17C150.494 166.113 150.842 166.017 151.185 165.918Z" fill="#FFECCC"/>
<path d="M164.684 162.987C162.966 167.582 166.585 173.198 172.754 175.504C178.923 177.81 185.34 175.947 187.058 171.353C188.777 166.755 185.156 161.14 178.987 158.834C172.818 156.527 166.402 158.39 164.684 162.987Z" fill="#FFECCC"/>
<path d="M165.31 178.824C166.687 175.14 163.945 170.828 159.067 169.005C154.191 167.182 149.291 168.638 147.915 172.32C146.538 176.003 149.28 180.318 154.155 182.141C159.033 183.964 163.933 182.508 165.31 178.824Z" fill="#FFECCC"/>
<path d="M170.761 137.727C175.638 139.551 180.538 138.095 181.915 134.412C183.292 130.729 180.55 126.415 175.672 124.592C170.796 122.769 165.897 124.226 164.52 127.908C163.143 131.591 165.885 135.905 170.761 137.727Z" fill="#FFECCC"/>
<path d="M278.295 265.682C282.831 263.805 284.467 257.329 281.948 251.243C279.427 245.159 273.69 241.736 269.156 243.614C264.622 245.492 262.984 251.97 265.505 258.053C268.024 264.138 273.764 267.561 278.295 265.682Z" fill="#FFECCC"/>
<path d="M307.128 266.314C306.865 266.156 306.614 266.004 306.45 265.856C302.981 262.682 296.021 260.129 287.808 263.396L287.493 263.524C279.455 266.854 276.273 273.318 275.976 278.262C275.966 278.431 275.889 278.676 275.807 278.938C275.71 279.242 275.617 279.552 275.561 279.869C274.959 283.2 275.323 286.518 276.588 289.211C277.929 292.07 280.12 293.908 282.75 294.382C283.812 294.574 284.831 294.472 285.781 294.077C287.742 293.266 289.078 291.42 290.627 289.28C291.61 287.918 292.629 286.513 293.883 285.256C294.029 285.13 294.692 284.754 295.829 284.283C297.183 283.722 298.207 283.441 298.445 283.425C300.193 283.466 301.85 283.784 303.45 284.091C305.902 284.564 308.219 285.007 310.195 284.191C311.043 283.84 311.77 283.277 312.364 282.514C315.633 278.315 313.687 271.314 308.027 266.908C307.743 266.688 307.436 266.499 307.128 266.314Z" fill="#FFECCC"/>
<path d="M295.78 258.442C300.311 256.563 301.949 250.087 299.428 244.002C296.909 237.918 291.169 234.495 286.638 236.372C282.104 238.251 280.466 244.729 282.985 250.813C285.507 256.899 291.244 260.319 295.78 258.442Z" fill="#FFECCC"/>
<path d="M306.934 247.183C303.301 248.688 302.019 253.634 304.01 258.445C306.002 263.255 310.408 265.846 314.04 264.34C317.673 262.835 318.958 257.887 316.966 253.079C314.975 248.268 310.569 245.678 306.934 247.183Z" fill="#FFECCC"/>
<path d="M273.16 271.224C271.168 266.412 266.762 263.823 263.13 265.326C259.497 266.831 258.212 271.78 260.203 276.59C262.195 281.4 266.603 283.988 270.236 282.486C273.869 280.98 275.151 276.032 273.16 271.224Z" fill="#FFECCC"/>
<path d="M46.6868 249.373C50.217 252.782 56.8095 251.702 61.3845 246.964C65.9595 242.226 66.8102 235.599 63.2799 232.19C59.7507 228.782 53.1569 229.863 48.5819 234.6C44.007 239.338 43.1576 245.965 46.6868 249.373Z" fill="#FFECCC"/>
<path d="M57.6038 276.065C57.6453 275.761 57.6824 275.469 57.7551 275.259C59.2826 270.815 58.8472 263.414 52.577 257.185L52.3338 256.947C46.0746 250.902 38.8766 250.562 34.2256 252.26C34.0659 252.318 33.8104 252.346 33.5398 252.375C33.2211 252.408 32.9003 252.446 32.5857 252.521C29.292 253.298 26.3943 254.955 24.4287 257.188C22.3405 259.558 21.5301 262.3 22.143 264.901C22.3911 265.953 22.892 266.844 23.6317 267.558C25.1571 269.033 27.3835 269.522 29.963 270.09C31.6042 270.449 33.2989 270.822 34.9524 271.473C35.127 271.555 35.7335 272.013 36.6202 272.868C37.6744 273.887 38.3411 274.711 38.4491 274.924C39.1101 276.547 39.4777 278.19 39.8346 279.78C40.3801 282.22 40.896 284.521 42.4332 286.006C43.0929 286.643 43.9006 287.086 44.835 287.324C49.9898 288.648 55.6344 284.073 57.4177 277.125C57.5073 276.777 57.558 276.421 57.6038 276.065Z" fill="#FFECCC"/>
<path d="M60.2988 262.518C63.8275 265.925 70.4205 264.845 74.9957 260.109C79.5705 255.37 80.4206 248.742 76.8922 245.335C73.3614 241.926 66.7679 243.007 62.1932 247.745C57.6179 252.482 56.7683 259.108 60.2988 262.518Z" fill="#FFECCC"/>
<path d="M75.0716 268.257C72.2423 265.526 67.1945 266.322 63.577 270.067C59.9612 273.812 59.343 278.886 62.171 281.618C64.9988 284.349 70.0497 283.556 73.6654 279.811C77.283 276.065 77.9009 270.991 75.0716 268.257Z" fill="#FFECCC"/>
<path d="M39.5573 246.873C43.1745 243.127 43.7925 238.053 40.9645 235.322C38.1362 232.59 33.0866 233.385 29.4693 237.131C25.8536 240.875 25.2357 245.949 28.0639 248.681C30.8922 251.412 35.9415 250.617 39.5573 246.873Z" fill="#FFECCC"/>
<path d="M279.695 58.4975C281.807 54.0682 278.692 48.1592 272.748 45.3238C266.803 42.4886 260.247 43.7847 258.135 48.214C256.023 52.6423 259.141 58.5523 265.085 61.3875C271.03 64.223 277.583 62.9258 279.695 58.4975Z" fill="#FFECCC"/>
<path d="M301.545 39.6746C301.24 39.7325 300.954 39.7893 300.731 39.787C296.031 39.7494 289.149 42.5109 285.233 50.433L285.084 50.7392C281.339 58.5928 283.3 65.5266 286.387 69.3986C286.492 69.5317 286.6 69.7654 286.712 70.0127C286.845 70.3043 286.984 70.5964 287.155 70.8711C288.937 73.7482 291.428 75.9701 294.17 77.1254C297.08 78.3537 299.935 78.2523 302.208 76.8456C303.127 76.277 303.813 75.5187 304.256 74.5905C305.17 72.6766 304.927 70.41 304.648 67.7837C304.468 66.113 304.282 64.3879 304.374 62.6135C304.399 62.4213 304.64 61.7011 305.17 60.5886C305.802 59.2656 306.373 58.3716 306.539 58.2021C307.868 57.0606 309.309 56.19 310.705 55.3472C312.845 54.0562 314.862 52.8369 315.784 50.9077C316.178 50.08 316.342 49.1733 316.273 48.211C315.894 42.9028 309.763 39.0019 302.607 39.5149C302.249 39.5408 301.896 39.606 301.545 39.6746Z" fill="#FFECCC"/>
<path d="M287.841 41.418C289.953 36.9905 286.838 31.0807 280.894 28.2453C274.949 25.4102 268.393 26.707 266.281 31.1345C264.169 35.5643 267.287 41.4741 273.231 44.3093C279.176 47.1447 285.729 45.8481 287.841 41.418Z" fill="#FFECCC"/>
<path d="M288.597 25.5868C286.904 29.1369 289.262 33.6714 293.962 35.9132C298.66 38.1542 303.667 37.1302 305.359 33.5818C307.052 30.0339 304.696 25.4957 299.999 23.2549C295.299 21.0131 290.291 22.037 288.597 25.5868Z" fill="#FFECCC"/>
<path d="M279.585 66.0518C274.885 63.8101 269.878 64.834 268.185 68.3825C266.493 71.9311 268.849 76.468 273.549 78.7098C278.246 80.9505 283.254 79.9263 284.948 76.3776C286.641 72.8289 284.283 68.2929 279.585 66.0518Z" fill="#FFECCC"/>
<path d="M166.769 402.481C165.253 397.814 158.925 395.674 152.661 397.709C146.398 399.744 142.535 405.197 144.052 409.864C145.568 414.531 151.897 416.671 158.161 414.636C164.424 412.6 168.285 407.148 166.769 402.481Z" fill="#FFECCC"/>
<path d="M169.662 373.788C169.482 374.039 169.313 374.277 169.15 374.428C165.714 377.636 162.624 384.376 165.236 392.819L165.339 393.144C168.028 401.418 174.224 405.097 179.128 405.783C179.296 405.806 179.534 405.901 179.787 406.003C180.084 406.124 180.385 406.241 180.698 406.323C183.971 407.183 187.307 407.078 190.091 406.031C193.048 404.918 195.05 402.877 195.731 400.294C196.005 399.25 195.982 398.226 195.664 397.248C195.009 395.231 193.273 393.754 191.262 392.041C189.981 390.953 188.66 389.829 187.505 388.477C187.39 388.321 187.069 387.635 186.688 386.463C186.236 385.068 186.034 384.026 186.039 383.788C186.216 382.047 186.664 380.421 187.095 378.852C187.758 376.44 188.383 374.167 187.723 372.134C187.439 371.261 186.934 370.491 186.222 369.841C182.292 366.252 175.16 367.644 170.324 372.938C170.081 373.205 169.869 373.496 169.662 373.788Z" fill="#FFECCC"/>
<path d="M160.922 384.484C159.406 379.82 153.078 377.677 146.814 379.712C140.551 381.747 136.688 387.2 138.204 391.867C139.721 396.534 146.05 398.674 152.314 396.639C158.577 394.604 162.439 389.153 160.922 384.484Z" fill="#FFECCC"/>
<path d="M150.573 372.48C151.788 376.22 156.619 377.889 161.572 376.279C166.522 374.671 169.45 370.481 168.235 366.743C167.021 363.003 162.188 361.334 157.238 362.941C152.286 364.549 149.358 368.74 150.573 372.48Z" fill="#FFECCC"/>
<path d="M171.89 408.036C166.938 409.646 164.01 413.837 165.225 417.574C166.44 421.315 171.272 422.984 176.224 421.373C181.174 419.766 184.102 415.575 182.887 411.835C181.672 408.097 176.841 406.428 171.89 408.036Z" fill="#FFECCC"/>
<path d="M38.5911 520.205C42.4582 517.184 42.3057 510.505 38.2509 505.316C34.1963 500.124 27.7518 498.36 23.8847 501.381C20.0186 504.402 20.1716 511.084 24.2262 516.273C28.281 521.462 34.7247 523.226 38.5911 520.205Z" fill="#FFECCC"/>
<path d="M66.5439 513.108C66.2469 513.024 65.9648 512.947 65.7669 512.847C61.5765 510.715 54.1868 510.116 47.1462 515.459L46.8772 515.666C40.0205 521.024 38.6821 528.105 39.7164 532.946C39.7512 533.112 39.7432 533.368 39.7345 533.642C39.7228 533.962 39.7161 534.285 39.7463 534.607C40.0568 537.976 41.2948 541.076 43.2333 543.334C45.2897 545.731 47.8912 546.916 50.5531 546.67C51.6283 546.57 52.5816 546.199 53.3921 545.567C55.063 544.261 55.8577 542.124 56.779 539.648C57.3635 538.074 57.9676 536.448 58.8416 534.899C58.9494 534.738 59.4862 534.203 60.4577 533.443C61.6125 532.541 62.5224 531.996 62.7474 531.919C64.4454 531.489 66.1253 531.354 67.7489 531.223C70.2395 531.021 72.5906 530.831 74.2748 529.516C74.9975 528.95 75.5492 528.213 75.9165 527.319C77.9446 522.399 74.1985 516.173 67.5676 513.441C67.2348 513.303 66.8879 513.203 66.5439 513.108Z" fill="#FFECCC"/>
<path d="M53.5027 508.554C57.368 505.533 57.2162 498.854 53.1614 493.665C49.1069 488.476 42.6618 486.712 38.7965 489.731C34.9289 492.754 35.0822 499.433 39.1367 504.622C43.1915 509.814 49.635 511.575 53.5027 508.554Z" fill="#FFECCC"/>
<path d="M61.2438 494.725C58.1442 497.147 58.2299 502.254 61.4361 506.358C64.6407 510.461 69.5794 511.78 72.6773 509.358C75.7751 506.939 75.6922 501.827 72.4876 497.725C69.2814 493.622 64.343 492.303 61.2438 494.725Z" fill="#FFECCC"/>
<path d="M35.1231 526.917C31.9172 522.813 26.9784 521.495 23.8805 523.917C20.7822 526.336 20.8661 531.448 24.0721 535.549C27.2767 539.653 32.2159 540.972 35.314 538.55C38.4122 536.131 38.3277 531.018 35.1231 526.917Z" fill="#FFECCC"/>
<path d="M299.005 522.483C295.534 519.014 288.924 519.98 284.267 524.636C279.611 529.293 278.643 535.905 282.114 539.374C285.583 542.843 292.196 541.878 296.852 537.221C301.509 532.564 302.474 525.952 299.005 522.483Z" fill="#FFECCC"/>
<path d="M288.556 495.603C288.507 495.91 288.466 496.2 288.389 496.407C286.784 500.826 287.091 508.234 293.251 514.57L293.491 514.813C299.643 520.965 306.834 521.431 311.514 519.813C311.675 519.759 311.931 519.736 312.202 519.711C312.52 519.685 312.842 519.652 313.157 519.583C316.465 518.863 319.391 517.256 321.395 515.057C323.525 512.724 324.383 509.998 323.814 507.387C323.587 506.33 323.1 505.431 322.373 504.701C320.873 503.204 318.656 502.674 316.088 502.062C314.453 501.673 312.765 501.274 311.122 500.593C310.95 500.506 310.351 500.04 309.478 499.167C308.444 498.13 307.791 497.295 307.686 497.08C307.054 495.447 306.716 493.796 306.386 492.201C305.884 489.754 305.408 487.442 303.898 485.932C303.247 485.284 302.449 484.826 301.517 484.57C296.387 483.156 290.662 487.634 288.76 494.548C288.663 494.894 288.607 495.252 288.556 495.603Z" fill="#FFECCC"/>
<path d="M285.624 509.105C282.156 505.636 275.543 506.598 270.886 511.258C266.23 515.914 265.265 522.524 268.733 525.993C272.205 529.464 278.815 528.499 283.471 523.843C288.128 519.183 289.093 512.573 285.624 509.105Z" fill="#FFECCC"/>
<path d="M270.953 503.107C273.733 505.887 278.794 505.18 282.478 501.496C286.159 497.818 286.866 492.754 284.086 489.974C281.306 487.194 276.242 487.9 272.561 491.579C268.879 495.263 268.173 500.324 270.953 503.107Z" fill="#FFECCC"/>
<path d="M306.089 525.107C302.408 528.791 301.701 533.852 304.481 536.632C307.261 539.412 312.322 538.706 316.006 535.025C319.685 531.343 320.392 526.282 317.611 523.502C314.831 520.722 309.77 521.428 306.089 525.107Z" fill="#FFECCC"/>
<path d="M422.702 658.048C424.932 653.676 421.97 647.685 416.102 644.695C410.235 641.708 403.648 642.831 401.418 647.204C399.191 651.574 402.153 657.564 408.023 660.554C413.891 663.544 420.475 662.418 422.702 658.048Z" fill="#FFECCC"/>
<path d="M445.038 639.803C444.733 639.851 444.444 639.903 444.224 639.895C439.524 639.734 432.573 642.314 428.452 650.13L428.296 650.432C424.346 658.186 426.125 665.167 429.107 669.12C429.21 669.256 429.312 669.491 429.417 669.742C429.542 670.036 429.673 670.333 429.837 670.612C431.542 673.533 433.974 675.822 436.685 677.048C439.562 678.351 442.419 678.326 444.728 676.979C445.663 676.434 446.369 675.694 446.835 674.778C447.798 672.888 447.616 670.615 447.404 667.983C447.268 666.309 447.127 664.579 447.268 662.807C447.296 662.618 447.557 661.903 448.115 660.805C448.781 659.5 449.375 658.619 449.546 658.455C450.903 657.349 452.37 656.515 453.786 655.711C455.956 654.474 458.007 653.309 458.977 651.405C459.395 650.588 459.581 649.684 459.538 648.722C459.297 643.405 453.271 639.345 446.106 639.67C445.747 639.688 445.389 639.744 445.038 639.803Z" fill="#FFECCC"/>
<path d="M431.293 641.188C433.521 636.815 430.561 630.828 424.691 627.837C418.824 624.847 412.237 625.971 410.01 630.344C407.782 634.716 410.744 640.704 416.612 643.694C422.479 646.684 429.066 645.56 431.293 641.188Z" fill="#FFECCC"/>
<path d="M432.463 625.38C430.679 628.884 432.916 633.48 437.555 635.845C442.194 638.208 447.227 637.315 449.011 633.812C450.795 630.31 448.561 625.71 443.922 623.347C439.283 620.984 434.25 621.878 432.463 625.38Z" fill="#FFECCC"/>
<path d="M422.398 665.597C417.756 663.232 412.723 664.125 410.939 667.627C409.155 671.13 411.39 675.727 416.031 678.093C420.667 680.456 425.7 679.562 427.487 676.058C429.271 672.556 427.034 667.96 422.398 665.597Z" fill="#FFECCC"/>
<path d="M556.49 509.105C560.824 511.409 566.863 508.554 569.956 502.738C573.046 496.924 572.037 490.319 567.706 488.015C563.371 485.711 557.332 488.568 554.24 494.382C551.147 500.198 552.159 506.803 556.49 509.105Z" fill="#FFECCC"/>
<path d="M574.341 531.755C574.298 531.451 574.254 531.162 574.264 530.939C574.508 526.244 572.05 519.25 564.306 514.99L564.007 514.829C556.324 510.746 549.31 512.402 545.308 515.315C545.17 515.415 544.932 515.512 544.681 515.615C544.384 515.735 544.085 515.86 543.803 516.019C540.851 517.673 538.522 520.064 537.249 522.755C535.895 525.609 535.872 528.466 537.178 530.798C537.705 531.74 538.432 532.46 539.341 532.943C541.215 533.939 543.488 533.796 546.125 533.629C547.802 533.522 549.532 533.414 551.301 533.583C551.493 533.617 552.202 533.888 553.29 534.467C554.583 535.155 555.454 535.764 555.615 535.939C556.698 537.316 557.504 538.796 558.285 540.224C559.48 542.418 560.612 544.489 562.499 545.492C563.308 545.923 564.206 546.125 565.171 546.099C570.491 545.951 574.656 539.996 574.456 532.826C574.446 532.467 574.395 532.109 574.341 531.755Z" fill="#FFECCC"/>
<path d="M573.199 517.99C577.528 520.292 583.57 517.437 586.662 511.621C589.752 505.807 588.744 499.203 584.412 496.899C580.078 494.595 574.039 497.452 570.947 503.265C567.854 509.082 568.865 515.686 573.199 517.99Z" fill="#FFECCC"/>
<path d="M588.982 519.437C585.508 517.588 580.877 519.747 578.432 524.344C575.987 528.94 576.791 533.988 580.262 535.834C583.734 537.679 588.37 535.524 590.815 530.929C593.26 526.331 592.453 521.283 588.982 519.437Z" fill="#FFECCC"/>
<path d="M548.948 508.667C551.393 504.069 550.587 499.021 547.115 497.175C543.644 495.329 539.011 497.485 536.566 502.083C534.121 506.68 534.927 511.729 538.399 513.574C541.87 515.42 546.504 513.262 548.948 508.667Z" fill="#FFECCC"/>
<path d="M430.812 385.208C428.777 389.675 431.995 395.528 437.988 398.259C443.981 400.991 450.511 399.58 452.547 395.116C454.582 390.651 451.361 384.796 445.368 382.065C439.375 379.333 432.845 380.744 430.812 385.208Z" fill="#FFECCC"/>
<path d="M409.293 404.411C409.595 404.347 409.882 404.285 410.104 404.283C414.804 404.239 421.637 401.359 425.413 393.37L425.556 393.06C429.166 385.142 427.082 378.245 423.928 374.426C423.821 374.295 423.711 374.065 423.593 373.819C423.455 373.53 423.311 373.24 423.137 372.969C421.304 370.122 418.775 367.944 416.013 366.838C413.082 365.66 410.227 365.811 407.979 367.258C407.073 367.841 406.397 368.612 405.972 369.546C405.092 371.476 405.373 373.74 405.701 376.361C405.908 378.028 406.123 379.748 406.062 381.524C406.042 381.716 405.814 382.441 405.302 383.562C404.695 384.896 404.139 385.8 403.976 385.974C402.667 387.139 401.239 388.035 399.862 388.9C397.745 390.228 395.748 391.483 394.859 393.428C394.481 394.263 394.332 395.172 394.417 396.132C394.89 401.434 401.088 405.228 408.233 404.59C408.591 404.557 408.945 404.485 409.293 404.411Z" fill="#FFECCC"/>
<path d="M422.963 402.429C420.931 406.892 424.149 412.746 430.141 415.478C436.134 418.209 442.665 416.799 444.7 412.334C446.735 407.867 443.515 402.015 437.522 399.283C431.529 396.552 424.998 397.962 422.963 402.429Z" fill="#FFECCC"/>
<path d="M422.484 418.271C424.115 414.692 421.681 410.199 416.942 408.038C412.204 405.88 407.214 406.991 405.586 410.57C403.955 414.147 406.39 418.642 411.126 420.8C415.864 422.961 420.854 421.85 422.484 418.271Z" fill="#FFECCC"/>
<path d="M430.789 377.654C435.528 379.814 440.517 378.703 442.145 375.124C443.776 371.548 441.342 367.053 436.603 364.892C431.867 362.734 426.878 363.845 425.247 367.424C423.616 371 426.051 375.496 430.789 377.654Z" fill="#FFECCC"/>
<path d="M567.245 274.926C562.348 274.627 558.037 279.731 557.635 286.303C557.233 292.877 560.888 298.47 565.788 298.77C570.686 299.069 574.997 293.965 575.399 287.391C575.8 280.817 572.142 275.226 567.245 274.926Z" fill="#FFECCC"/>
<path d="M541.609 261.719C541.775 261.978 541.937 262.223 542.016 262.431C543.742 266.803 548.879 272.149 557.694 272.812L558.031 272.835C566.718 273.367 572.411 268.951 574.846 264.637C574.93 264.492 575.107 264.302 575.294 264.105C575.514 263.875 575.734 263.637 575.923 263.375C577.923 260.644 579.052 257.503 579.095 254.528C579.144 251.369 577.979 248.759 575.823 247.179C574.953 246.541 573.993 246.187 572.966 246.125C570.849 245.995 568.837 247.069 566.508 248.312C565.025 249.105 563.497 249.923 561.815 250.502C561.628 250.551 560.871 250.598 559.642 250.522C558.177 250.433 557.135 250.238 556.915 250.147C555.359 249.344 554.012 248.332 552.707 247.355C550.71 245.855 548.823 244.439 546.688 244.309C545.774 244.253 544.87 244.44 544.005 244.865C539.226 247.206 537.905 254.352 541.061 260.792C541.22 261.115 541.414 261.42 541.609 261.719Z" fill="#FFECCC"/>
<path d="M548.357 273.772C543.463 273.472 539.149 278.574 538.747 285.148C538.345 291.722 542.003 297.313 546.901 297.613C551.798 297.912 556.109 292.808 556.511 286.236C556.913 279.662 553.257 274.071 548.357 273.772Z" fill="#FFECCC"/>
<path d="M533.397 279.002C537.321 279.24 540.644 275.356 540.961 270.159C541.279 264.963 538.453 260.703 534.531 260.465C530.606 260.224 527.281 264.108 526.963 269.302C526.646 274.501 529.47 278.761 533.397 279.002Z" fill="#FFECCC"/>
<path d="M574.29 272.197C573.972 277.397 576.799 281.654 580.723 281.894C584.645 282.135 587.971 278.252 588.288 273.055C588.605 267.858 585.779 263.598 581.855 263.357C577.93 263.119 574.607 267.003 574.29 272.197Z" fill="#FFECCC"/>
<path d="M431.524 162.764C428.273 159.089 421.614 159.649 416.681 164.013C411.75 168.377 410.381 174.917 413.632 178.592C416.883 182.267 423.542 181.706 428.475 177.342C433.408 172.978 434.775 166.439 431.524 162.764Z" fill="#FFECCC"/>
<path d="M422.733 135.297C422.669 135.598 422.61 135.885 422.52 136.088C420.649 140.401 420.503 147.814 426.263 154.515L426.488 154.771C432.253 161.287 439.403 162.191 444.173 160.863C444.337 160.818 444.593 160.81 444.864 160.803C445.186 160.795 445.509 160.782 445.826 160.732C449.172 160.216 452.191 158.791 454.326 156.719C456.594 154.52 457.615 151.851 457.211 149.209C457.044 148.142 456.614 147.213 455.933 146.443C454.528 144.855 452.347 144.192 449.82 143.423C448.212 142.936 446.553 142.432 444.956 141.654C444.787 141.557 444.219 141.053 443.402 140.13C442.432 139.033 441.83 138.158 441.741 137.938C441.208 136.269 440.97 134.601 440.74 132.988C440.386 130.515 440.054 128.179 438.638 126.579C438.029 125.892 437.261 125.386 436.347 125.074C431.311 123.35 425.326 127.469 423.001 134.255C422.886 134.595 422.807 134.948 422.733 135.297Z" fill="#FFECCC"/>
<path d="M418.985 148.592C415.734 144.918 409.078 145.477 404.145 149.841C399.212 154.205 397.845 160.746 401.093 164.42C404.347 168.096 411.006 167.535 415.936 163.171C420.869 158.807 422.236 152.268 418.985 148.592Z" fill="#FFECCC"/>
<path d="M404.708 141.71C407.314 144.655 412.408 144.258 416.31 140.807C420.206 137.358 421.222 132.348 418.616 129.404C416.013 126.46 410.913 126.855 407.014 130.304C403.116 133.754 402.102 138.764 404.708 141.71Z" fill="#FFECCC"/>
<path d="M438.433 165.816C434.534 169.267 433.521 174.277 436.124 177.221C438.73 180.166 443.827 179.77 447.726 176.319C451.625 172.87 452.639 167.86 450.035 164.915C447.429 161.971 442.332 162.367 438.433 165.816Z" fill="#FFECCC"/>
<path d="M548.974 47.1337C553.874 47.4332 558.185 42.3301 558.587 35.7563C558.989 29.183 555.331 23.5908 550.433 23.2912C545.536 22.9917 541.225 28.0962 540.823 34.6698C540.421 41.2436 544.079 46.8342 548.974 47.1337Z" fill="#FFECCC"/>
<path d="M574.613 60.341C574.446 60.0817 574.285 59.8369 574.206 59.6301C572.478 55.2571 567.34 49.9121 558.528 49.2477L558.188 49.2252C549.504 48.694 543.808 53.1103 541.376 57.4223C541.292 57.5695 541.115 57.7569 540.928 57.9548C540.708 58.1868 540.488 58.4243 540.298 58.6854C538.296 61.4149 537.17 64.5571 537.126 67.5323C537.078 70.6908 538.243 73.3012 540.398 74.8818C541.269 75.5195 542.229 75.873 543.255 75.9357C545.372 76.065 547.382 74.9916 549.714 73.748C551.194 72.9554 552.725 72.1377 554.404 71.5584C554.591 71.509 555.351 71.4627 556.58 71.5379C558.044 71.6273 559.086 71.8218 559.306 71.913C560.863 72.7168 562.209 73.7288 563.512 74.7057C565.512 76.2053 567.398 77.6207 569.531 77.7513C570.447 77.8074 571.349 77.62 572.216 77.1955C576.996 74.8539 578.314 67.7084 575.16 61.268C575.002 60.9446 574.807 60.6403 574.613 60.341Z" fill="#FFECCC"/>
<path d="M567.862 48.2888C572.759 48.5883 577.07 43.4852 577.475 36.9114C577.876 30.3381 574.218 24.7459 569.321 24.4464C564.421 24.1468 560.11 29.2513 559.708 35.8249C559.306 42.3987 562.964 47.9893 567.862 48.2888Z" fill="#FFECCC"/>
<path d="M582.825 43.0597C578.898 42.8196 575.578 46.7031 575.26 51.9009C574.943 57.0965 577.766 61.3563 581.691 61.5964C585.615 61.8363 588.941 57.9525 589.258 52.7573C589.576 47.5594 586.749 43.2998 582.825 43.0597Z" fill="#FFECCC"/>
<path d="M541.932 49.8624C542.249 44.6648 539.423 40.4053 535.498 40.1651C531.574 39.9253 528.251 43.8088 527.934 49.0064C527.616 54.2019 530.44 58.4617 534.364 58.7018C538.289 58.9417 541.612 55.0579 541.932 49.8624Z" fill="#FFECCC"/>
<path d="M684.367 157.765C687.957 154.418 687.224 147.778 682.732 142.962C678.241 138.145 671.667 136.949 668.078 140.296C664.489 143.642 665.224 150.283 669.717 155.1C674.207 159.916 680.781 161.111 684.367 157.765Z" fill="#FFECCC"/>
<path d="M711.596 148.26C711.293 148.203 711.004 148.151 710.799 148.067C706.44 146.309 699.026 146.356 692.478 152.292L692.227 152.522C685.862 158.457 685.148 165.627 686.6 170.361C686.648 170.523 686.664 170.78 686.679 171.052C686.694 171.371 686.715 171.694 686.774 172.012C687.378 175.342 688.881 178.322 691.008 180.402C693.266 182.611 695.962 183.564 698.591 183.088C699.653 182.895 700.572 182.442 701.322 181.741C702.874 180.294 703.48 178.097 704.182 175.55C704.627 173.93 705.086 172.257 705.823 170.64C705.915 170.47 706.404 169.889 707.305 169.048C708.378 168.048 709.235 167.426 709.453 167.329C711.107 166.754 712.771 166.473 714.376 166.199C716.838 165.782 719.166 165.388 720.727 163.93C721.398 163.305 721.884 162.521 722.171 161.601C723.763 156.522 719.488 150.646 712.645 148.501C712.302 148.394 711.946 148.325 711.596 148.26Z" fill="#FFECCC"/>
<path d="M698.207 144.86C701.796 141.515 701.061 134.874 696.571 130.057C692.078 125.241 685.504 124.045 681.917 127.39C678.328 130.737 679.063 137.379 683.553 142.195C688.046 147.012 694.618 148.207 698.207 144.86Z" fill="#FFECCC"/>
<path d="M704.714 130.407C701.837 133.09 702.367 138.173 705.92 141.981C709.468 145.788 714.504 146.671 717.379 143.99C720.253 141.309 719.726 136.223 716.175 132.416C712.625 128.608 707.589 127.725 704.714 130.407Z" fill="#FFECCC"/>
<path d="M681.498 164.754C677.947 160.946 672.911 160.063 670.037 162.744C667.162 165.426 667.692 170.51 671.242 174.318C674.791 178.125 679.826 179.008 682.703 176.326C685.578 173.645 685.048 168.561 681.498 164.754Z" fill="#FFECCC"/>
<path d="M683.512 397.878C687.782 395.461 688.62 388.833 685.376 383.101C682.133 377.37 676.019 374.671 671.749 377.088C667.479 379.505 666.642 386.132 669.885 391.864C673.129 397.599 679.242 400.294 683.512 397.878Z" fill="#FFECCC"/>
<path d="M712.205 394.993C711.926 394.865 711.657 394.747 711.475 394.619C707.648 391.89 700.426 390.205 692.675 394.45L692.378 394.614C684.805 398.899 682.435 405.704 682.742 410.647C682.752 410.816 682.706 411.069 682.657 411.336C682.598 411.651 682.542 411.971 682.524 412.293C682.335 415.672 683.1 418.921 684.685 421.44C686.364 424.115 688.76 425.669 691.43 425.823C692.508 425.882 693.507 425.656 694.4 425.149C696.246 424.105 697.349 422.108 698.627 419.796C699.436 418.324 700.275 416.806 701.368 415.406C701.499 415.263 702.108 414.81 703.181 414.203C704.456 413.481 705.436 413.076 705.672 413.033C707.412 412.861 709.094 412.974 710.72 413.084C713.213 413.253 715.566 413.412 717.427 412.36C718.226 411.909 718.879 411.261 719.375 410.432C722.107 405.865 719.324 399.155 713.17 395.471C712.86 395.287 712.532 395.136 712.205 394.993Z" fill="#FFECCC"/>
<path d="M699.981 388.559C704.251 386.145 705.088 379.517 701.845 373.783C698.601 368.051 692.488 365.355 688.218 367.77C683.948 370.186 683.11 376.817 686.354 382.548C689.598 388.28 695.711 390.976 699.981 388.559Z" fill="#FFECCC"/>
<path d="M709.681 376.026C706.258 377.963 705.587 383.03 708.152 387.561C710.715 392.092 715.405 394.125 718.828 392.189C722.248 390.254 722.921 385.185 720.358 380.654C717.793 376.123 713.103 374.09 709.681 376.026Z" fill="#FFECCC"/>
<path d="M679.089 404.004C676.526 399.473 671.836 397.437 668.414 399.373C664.991 401.311 664.32 406.377 666.883 410.911C669.448 415.439 674.138 417.475 677.558 415.537C680.981 413.601 681.651 408.535 679.089 404.004Z" fill="#FFECCC"/>
<path d="M818.936 770.358C823.206 767.941 824.043 761.313 820.8 755.581C817.556 749.85 811.443 747.151 807.173 749.568C802.903 751.985 802.066 758.612 805.309 764.344C808.553 770.079 814.666 772.774 818.936 770.358Z" fill="#FFECCC"/>
<path d="M847.629 767.473C847.35 767.345 847.081 767.227 846.899 767.099C843.072 764.37 835.85 762.685 828.099 766.93L827.802 767.094C820.229 771.379 817.859 778.184 818.166 783.127C818.176 783.296 818.13 783.549 818.081 783.816C818.022 784.131 817.966 784.451 817.948 784.773C817.759 788.152 818.524 791.401 820.109 793.92C821.788 796.595 824.184 798.149 826.854 798.303C827.932 798.362 828.931 798.136 829.824 797.629C831.67 796.585 832.773 794.588 834.051 792.276C834.86 790.804 835.699 789.286 836.792 787.886C836.923 787.743 837.532 787.29 838.605 786.683C839.88 785.961 840.86 785.556 841.096 785.513C842.837 785.341 844.518 785.454 846.144 785.564C848.637 785.733 850.99 785.892 852.851 784.84C853.65 784.389 854.303 783.741 854.799 782.912C857.531 778.345 854.748 771.635 848.594 767.951C848.284 767.767 847.957 767.616 847.629 767.473Z" fill="#FFECCC"/>
<path d="M835.405 761.039C839.675 758.625 840.512 751.997 837.269 746.263C834.025 740.531 827.912 737.836 823.642 740.25C819.372 742.666 818.535 749.297 821.778 755.029C825.022 760.76 831.135 763.456 835.405 761.039Z" fill="#FFECCC"/>
<path d="M845.105 748.506C841.682 750.444 841.011 755.51 843.576 760.041C846.139 764.572 850.829 766.605 854.252 764.669C857.672 762.734 858.345 757.665 855.782 753.134C853.217 748.603 848.527 746.57 845.105 748.506Z" fill="#FFECCC"/>
<path d="M685.798 650.194C690.616 649.257 693.512 643.236 692.257 636.772C691 630.308 686.059 625.81 681.242 626.744C676.426 627.681 673.528 633.702 674.785 640.169C676.042 646.633 680.983 651.131 685.798 650.194Z" fill="#FFECCC"/>
<path d="M713.928 656.561C713.7 656.351 713.485 656.156 713.354 655.974C710.587 652.173 704.274 648.284 695.578 649.848L695.242 649.912C686.702 651.571 682.294 657.272 681.016 662.057C680.973 662.221 680.85 662.446 680.717 662.684C680.563 662.966 680.41 663.25 680.289 663.549C679.037 666.693 678.733 670.019 679.434 672.909C680.179 675.978 681.958 678.216 684.442 679.206C685.445 679.606 686.464 679.706 687.473 679.511C689.554 679.107 691.233 677.563 693.176 675.776C694.413 674.637 695.69 673.462 697.17 672.481C697.339 672.387 698.063 672.151 699.272 671.915C700.71 671.636 701.77 671.565 702.006 671.598C703.713 671.985 705.27 672.627 706.778 673.247C709.087 674.199 711.268 675.098 713.367 674.688C714.268 674.514 715.092 674.107 715.827 673.48C719.867 670.016 719.355 662.766 714.688 657.321C714.455 657.05 714.191 656.801 713.928 656.561Z" fill="#FFECCC"/>
<path d="M704.374 646.582C709.189 645.647 712.087 639.626 710.83 633.162C709.573 626.696 704.632 622.198 699.817 623.135C694.999 624.072 692.104 630.093 693.361 636.557C694.615 643.023 699.556 647.519 704.374 646.582Z" fill="#FFECCC"/>
<path d="M717.55 637.775C713.69 638.525 711.447 643.116 712.44 648.228C713.434 653.338 717.235 656.755 721.093 656.005C724.954 655.255 727.199 650.662 726.208 645.553C725.212 640.44 721.411 637.023 717.55 637.775Z" fill="#FFECCC"/>
<path d="M679.662 654.6C678.669 649.487 674.867 646.072 671.007 646.822C667.149 647.572 664.901 652.163 665.894 657.275C666.887 662.385 670.692 665.802 674.55 665.052C678.41 664.302 680.655 659.709 679.662 654.6Z" fill="#FFECCC"/>
<path d="M553.446 764.626C558.264 763.689 561.16 757.668 559.905 751.204C558.648 744.74 553.707 740.242 548.889 741.176C544.074 742.113 541.176 748.134 542.433 754.601C543.69 761.065 548.631 765.563 553.446 764.626Z" fill="#FFECCC"/>
<path d="M581.576 770.993C581.348 770.783 581.133 770.588 581.002 770.406C578.235 766.605 571.922 762.716 563.226 764.28L562.89 764.344C554.35 766.003 549.942 771.704 548.664 776.489C548.621 776.653 548.498 776.878 548.365 777.116C548.211 777.398 548.058 777.682 547.937 777.981C546.685 781.125 546.381 784.451 547.082 787.341C547.827 790.41 549.606 792.648 552.09 793.638C553.093 794.038 554.112 794.138 555.121 793.943C557.202 793.539 558.881 791.995 560.824 790.208C562.061 789.069 563.338 787.894 564.818 786.913C564.987 786.819 565.711 786.583 566.92 786.348C568.358 786.068 569.418 785.997 569.654 786.03C571.361 786.417 572.918 787.059 574.426 787.679C576.735 788.631 578.916 789.53 581.015 789.12C581.916 788.946 582.74 788.539 583.475 787.912C587.515 784.448 587.003 777.198 582.336 771.753C582.103 771.482 581.839 771.233 581.576 770.993Z" fill="#FFECCC"/>
<path d="M572.022 761.014C576.837 760.079 579.735 754.058 578.478 747.594C577.221 741.128 572.28 736.63 567.465 737.567C562.647 738.504 559.752 744.525 561.009 750.989C562.263 757.455 567.204 761.951 572.022 761.014Z" fill="#FFECCC"/>
<path d="M585.198 752.207C581.338 752.957 579.095 757.548 580.088 762.66C581.082 767.77 584.883 771.187 588.741 770.437C592.602 769.687 594.847 765.094 593.856 759.985C592.86 754.872 589.059 751.455 585.198 752.207Z" fill="#FFECCC"/>
<path d="M547.31 769.032C546.317 763.919 542.515 760.504 538.655 761.254C534.797 762.004 532.549 766.595 533.542 771.707C534.535 776.817 538.34 780.234 542.198 779.484C546.058 778.734 548.303 774.141 547.31 769.032Z" fill="#FFECCC"/>
<path d="M818.15 521.426C822.968 520.489 825.864 514.468 824.609 508.004C823.352 501.54 818.411 497.042 813.594 497.976C808.778 498.913 805.88 504.934 807.137 511.401C808.394 517.865 813.335 522.363 818.15 521.426Z" fill="#FFECCC"/>
<path d="M846.28 527.793C846.052 527.583 845.837 527.388 845.706 527.206C842.939 523.405 836.626 519.516 827.93 521.08L827.594 521.144C819.054 522.803 814.646 528.504 813.368 533.289C813.325 533.453 813.202 533.678 813.069 533.916C812.915 534.198 812.762 534.482 812.641 534.781C811.389 537.925 811.085 541.251 811.786 544.141C812.531 547.21 814.31 549.448 816.794 550.438C817.797 550.838 818.816 550.938 819.825 550.743C821.906 550.339 823.585 548.795 825.528 547.008C826.765 545.869 828.042 544.694 829.522 543.713C829.691 543.619 830.415 543.383 831.624 543.147C833.062 542.868 834.122 542.797 834.358 542.83C836.065 543.217 837.622 543.859 839.13 544.479C841.439 545.431 843.62 546.33 845.719 545.92C846.62 545.746 847.445 545.339 848.179 544.712C852.219 541.248 851.707 533.998 847.04 528.553C846.807 528.282 846.543 528.033 846.28 527.793Z" fill="#FFECCC"/>
<path d="M836.726 517.814C841.541 516.879 844.439 510.858 843.182 504.394C841.925 497.928 836.984 493.43 832.169 494.367C827.351 495.304 824.456 501.325 825.713 507.789C826.967 514.255 831.908 518.751 836.726 517.814Z" fill="#FFECCC"/>
<path d="M849.902 509.007C846.042 509.757 843.799 514.348 844.793 519.46C845.786 524.57 849.587 527.987 853.445 527.237C857.306 526.487 859.551 521.894 858.56 516.785C857.564 511.672 853.763 508.255 849.902 509.007Z" fill="#FFECCC"/>
<path d="M812.014 525.832C811.021 520.719 807.219 517.304 803.359 518.054C799.501 518.804 797.253 523.395 798.246 528.507C799.24 533.617 803.044 537.034 806.902 536.284C810.762 535.534 813.007 530.941 812.014 525.832Z" fill="#FFECCC"/>
<path d="M956.769 656.748C955.707 651.958 949.614 649.219 943.183 650.645C936.755 652.07 932.388 657.126 933.448 661.919C934.51 666.709 940.605 669.445 947.036 668.022C953.467 666.596 957.832 661.537 956.769 656.748Z" fill="#FFECCC"/>
<path d="M962.399 628.465C962.197 628.695 962.005 628.918 961.828 629.053C958.101 631.918 954.378 638.328 956.168 646.984L956.242 647.317C958.124 655.811 963.94 660.068 968.755 661.217C968.919 661.258 969.147 661.376 969.39 661.501C969.674 661.65 969.961 661.796 970.266 661.906C973.44 663.076 976.773 663.293 979.643 662.515C982.695 661.691 984.883 659.853 985.807 657.347C986.181 656.333 986.255 655.311 986.033 654.308C985.574 652.237 983.987 650.601 982.149 648.704C980.979 647.498 979.771 646.252 978.752 644.797C978.652 644.631 978.399 643.914 978.133 642.711C977.815 641.28 977.715 640.225 977.741 639.987C978.087 638.272 978.686 636.698 979.267 635.174C980.158 632.84 980.997 630.636 980.534 628.549C980.337 627.653 979.907 626.839 979.262 626.122C975.693 622.175 968.461 622.874 963.139 627.684C962.872 627.924 962.632 628.193 962.399 628.465Z" fill="#FFECCC"/>
<path d="M952.673 638.275C951.611 633.485 945.518 630.746 939.087 632.171C932.659 633.597 928.292 638.656 929.354 643.443C930.416 648.235 936.509 650.972 942.94 649.549C949.371 648.123 953.735 643.067 952.673 638.275Z" fill="#FFECCC"/>
<path d="M943.524 625.334C944.374 629.174 949.023 631.296 954.107 630.17C959.189 629.041 962.506 625.152 961.654 621.315C960.804 617.475 956.153 615.35 951.071 616.476C945.989 617.603 942.672 621.494 943.524 625.334Z" fill="#FFECCC"/>
<path d="M961.334 662.769C956.25 663.895 952.934 667.786 953.787 671.624C954.637 675.461 959.286 677.586 964.37 676.46C969.451 675.333 972.767 671.442 971.917 667.605C971.067 663.767 966.415 661.642 961.334 662.769Z" fill="#FFECCC"/>
<path d="M958.305 408.94C957.243 404.15 951.15 401.411 944.719 402.836C938.291 404.262 933.924 409.318 934.984 414.111C936.046 418.901 942.141 421.637 948.572 420.214C955.003 418.788 959.368 413.729 958.305 408.94Z" fill="#FFECCC"/>
<path d="M963.935 380.657C963.733 380.887 963.541 381.11 963.364 381.245C959.637 384.11 955.914 390.52 957.704 399.176L957.778 399.508C959.66 408.003 965.476 412.26 970.291 413.409C970.455 413.45 970.683 413.568 970.926 413.693C971.21 413.842 971.497 413.988 971.802 414.098C974.976 415.268 978.309 415.485 981.179 414.707C984.231 413.883 986.419 412.045 987.344 409.539C987.717 408.525 987.792 407.503 987.569 406.5C987.111 404.429 985.523 402.793 983.685 400.896C982.515 399.69 981.307 398.444 980.288 396.989C980.188 396.823 979.935 396.106 979.669 394.903C979.351 393.472 979.251 392.417 979.277 392.179C979.623 390.464 980.222 388.89 980.803 387.366C981.694 385.032 982.533 382.828 982.07 380.741C981.873 379.845 981.443 379.031 980.798 378.314C977.229 374.367 969.997 375.066 964.675 379.876C964.409 380.117 964.168 380.385 963.935 380.657Z" fill="#FFECCC"/>
<path d="M954.209 390.467C953.147 385.677 947.054 382.938 940.623 384.364C934.195 385.789 929.828 390.848 930.89 395.635C931.953 400.427 938.045 403.164 944.476 401.741C950.907 400.315 955.272 395.259 954.209 390.467Z" fill="#FFECCC"/>
<path d="M945.06 377.526C945.91 381.366 950.559 383.488 955.643 382.362C960.725 381.233 964.043 377.344 963.19 373.507C962.34 369.667 957.689 367.542 952.607 368.668C947.525 369.795 944.208 373.686 945.06 377.526Z" fill="#FFECCC"/>
<path d="M962.87 414.961C957.786 416.087 954.47 419.978 955.323 423.816C956.173 427.653 960.822 429.778 965.906 428.652C970.988 427.525 974.303 423.634 973.453 419.796C972.603 415.959 967.951 413.834 962.87 414.961Z" fill="#FFECCC"/>
<path d="M959.388 160.987C954.504 160.517 950.016 165.467 949.386 172.022C948.754 178.578 952.215 184.294 957.099 184.764C961.984 185.235 966.469 180.284 967.101 173.728C967.734 167.172 964.272 161.458 959.388 160.987Z" fill="#FFECCC"/>
<path d="M934.229 146.893C934.385 147.158 934.539 147.408 934.61 147.618C936.185 152.049 941.133 157.57 949.916 158.541L950.254 158.576C958.915 159.41 964.759 155.195 967.342 150.97C967.432 150.826 967.616 150.645 967.808 150.453C968.039 150.229 968.264 150 968.464 149.745C970.558 147.087 971.794 143.986 971.943 141.015C972.101 137.86 971.029 135.21 968.93 133.555C968.082 132.888 967.135 132.501 966.111 132.402C963.999 132.199 961.954 133.202 959.58 134.363C958.073 135.104 956.514 135.868 954.816 136.388C954.627 136.431 953.867 136.451 952.64 136.333C951.181 136.192 950.147 135.961 949.929 135.863C948.403 135.005 947.09 133.947 945.823 132.925C943.877 131.356 942.042 129.876 939.915 129.671C939.001 129.583 938.092 129.739 937.211 130.133C932.355 132.306 930.786 139.401 933.714 145.948C933.86 146.276 934.044 146.588 934.229 146.893Z" fill="#FFECCC"/>
<path d="M940.551 159.174C935.67 158.704 931.182 163.653 930.552 170.209C929.92 176.764 933.381 182.481 938.263 182.951C943.147 183.421 947.635 178.47 948.267 171.915C948.897 165.359 945.438 159.644 940.551 159.174Z" fill="#FFECCC"/>
<path d="M925.417 163.877C929.333 164.254 932.787 160.489 933.286 155.306C933.785 150.125 931.11 145.768 927.196 145.392C923.284 145.015 919.826 148.78 919.326 153.961C918.827 159.145 921.502 163.501 925.417 163.877Z" fill="#FFECCC"/>
<path d="M966.525 158.506C966.026 163.689 968.701 168.045 972.613 168.422C976.527 168.799 979.986 165.033 980.485 159.85C980.982 154.669 978.306 150.313 974.395 149.936C970.48 149.559 967.024 153.325 966.525 158.506Z" fill="#FFECCC"/>
<path d="M1085.76 51.3085C1082.77 55.2021 1084.59 61.63 1089.82 65.6394C1095.04 69.6484 1101.72 69.7434 1104.71 65.8501C1107.7 61.9576 1105.88 55.5287 1100.65 51.5195C1095.43 47.51 1088.74 47.4163 1085.76 51.3085Z" fill="#FFECCC"/>
<path d="M1060.47 65.1773C1060.78 65.184 1061.07 65.1881 1061.29 65.2365C1065.88 66.2508 1073.19 64.9802 1078.67 58.0454L1078.87 57.7769C1084.17 50.8739 1083.69 43.6836 1081.48 39.2545C1081.41 39.1025 1081.35 38.8516 1081.29 38.5861C1081.22 38.2733 1081.14 37.9589 1081.03 37.6545C1079.89 34.4701 1077.92 31.7788 1075.47 30.0785C1072.88 28.2721 1070.07 27.7773 1067.55 28.6807C1066.54 29.0463 1065.71 29.6448 1065.08 30.4607C1063.79 32.1431 1063.55 34.4105 1063.28 37.0376C1063.11 38.709 1062.93 40.4352 1062.47 42.1517C1062.41 42.3345 1062.03 42.9888 1061.27 43.9667C1060.38 45.1295 1059.64 45.8852 1059.44 46.0165C1057.9 46.857 1056.31 47.4084 1054.77 47.9429C1052.41 48.7608 1050.18 49.534 1048.88 51.2294C1048.32 51.957 1047.97 52.8097 1047.84 53.7654C1047.11 59.0369 1052.3 64.127 1059.4 65.1126C1059.76 65.162 1060.12 65.1717 1060.47 65.1773Z" fill="#FFECCC"/>
<path d="M1074.24 66.3214C1071.25 70.2129 1073.07 76.6415 1078.3 80.6507C1083.52 84.66 1090.2 84.7544 1093.19 80.8627C1096.18 76.969 1094.36 70.5403 1089.13 66.5311C1083.91 62.5216 1077.23 62.4274 1074.24 66.3214Z" fill="#FFECCC"/>
<path d="M1070.21 81.6491C1072.6 78.5288 1071.24 73.6036 1067.11 70.4333C1062.98 67.2648 1057.87 67.2248 1055.48 70.3439C1053.08 73.4625 1054.44 78.391 1058.57 81.5598C1062.7 84.7299 1067.81 84.7695 1070.21 81.6491Z" fill="#FFECCC"/>
<path d="M1087.44 43.9421C1091.57 47.1122 1096.68 47.1519 1099.07 44.0328C1101.47 40.9134 1100.11 35.9862 1095.97 32.8161C1091.85 29.6476 1086.73 29.6079 1084.34 32.7273C1081.95 35.8464 1083.31 40.7734 1087.44 43.9421Z" fill="#FFECCC"/>
<path d="M1218.33 148.716C1221.15 152.736 1227.83 152.933 1233.22 149.155C1238.62 145.378 1240.72 139.035 1237.9 135.015C1235.09 130.996 1228.41 130.799 1223.01 134.576C1217.62 138.354 1215.52 144.697 1218.33 148.716Z" fill="#FFECCC"/>
<path d="M1223.96 177.001C1224.06 176.709 1224.15 176.432 1224.26 176.239C1226.61 172.166 1227.59 164.818 1222.63 157.507L1222.43 157.228C1217.44 150.1 1210.44 148.393 1205.55 149.172C1205.38 149.199 1205.13 149.177 1204.86 149.154C1204.54 149.126 1204.21 149.102 1203.89 149.115C1200.51 149.249 1197.35 150.323 1194.99 152.141C1192.49 154.069 1191.17 156.605 1191.28 159.276C1191.32 160.355 1191.64 161.327 1192.23 162.169C1193.45 163.906 1195.54 164.811 1197.96 165.861C1199.51 166.527 1201.1 167.216 1202.6 168.169C1202.75 168.285 1203.26 168.85 1203.97 169.859C1204.81 171.06 1205.31 171.997 1205.37 172.226C1205.71 173.944 1205.76 175.629 1205.81 177.257C1205.88 179.754 1205.94 182.113 1207.17 183.863C1207.7 184.614 1208.4 185.204 1209.28 185.618C1214.08 187.9 1220.5 184.485 1223.57 178.007C1223.73 177.681 1223.84 177.34 1223.96 177.001Z" fill="#FFECCC"/>
<path d="M1229.19 164.217C1232 168.235 1238.68 168.433 1244.08 164.655C1249.47 160.878 1251.57 154.534 1248.76 150.515C1245.94 146.495 1239.26 146.299 1233.87 150.076C1228.47 153.854 1226.37 160.196 1229.19 164.217Z" fill="#FFECCC"/>
<path d="M1242.59 172.67C1240.34 169.449 1235.23 169.267 1230.97 172.254C1226.7 175.239 1225.13 180.102 1227.38 183.323C1229.64 186.543 1234.75 186.727 1239.01 183.742C1243.27 180.755 1244.85 175.892 1242.59 172.67Z" fill="#FFECCC"/>
<path d="M1211.81 144.901C1216.08 141.914 1217.65 137.051 1215.4 133.831C1213.14 130.61 1208.04 130.426 1203.77 133.413C1199.51 136.399 1197.93 141.262 1200.19 144.483C1202.44 147.704 1207.55 147.887 1211.81 144.901Z" fill="#FFECCC"/>
<path d="M1074.46 270.971C1079.28 271.867 1084.19 267.325 1085.38 260.851C1086.58 254.375 1083.64 248.379 1078.81 247.485C1073.99 246.591 1069.08 251.132 1067.89 257.608C1066.69 264.082 1069.63 270.077 1074.46 270.971Z" fill="#FFECCC"/>
<path d="M1098.29 287.206C1098.16 286.927 1098.03 286.666 1097.98 286.449C1096.8 281.9 1092.35 275.968 1083.68 274.235L1083.35 274.171C1074.79 272.584 1068.6 276.275 1065.66 280.259C1065.56 280.394 1065.36 280.558 1065.15 280.732C1064.9 280.934 1064.66 281.144 1064.44 281.38C1062.12 283.845 1060.62 286.828 1060.21 289.774C1059.78 292.902 1060.62 295.636 1062.56 297.467C1063.35 298.207 1064.26 298.675 1065.27 298.862C1067.36 299.249 1069.48 298.427 1071.95 297.477C1073.51 296.87 1075.13 296.246 1076.87 295.877C1077.06 295.849 1077.82 295.898 1079.03 296.12C1080.47 296.389 1081.48 296.709 1081.69 296.824C1083.14 297.812 1084.35 298.982 1085.53 300.109C1087.33 301.842 1089.03 303.478 1091.13 303.867C1092.03 304.033 1092.95 303.956 1093.86 303.642C1098.89 301.901 1101.07 294.968 1098.72 288.192C1098.61 287.852 1098.45 287.526 1098.29 287.206Z" fill="#FFECCC"/>
<path d="M1093.06 274.419C1097.89 275.315 1102.79 270.774 1103.99 264.3C1105.19 257.823 1102.24 251.827 1097.42 250.933C1092.59 250.039 1087.69 254.58 1086.49 261.056C1085.29 267.53 1088.24 273.526 1093.06 274.419Z" fill="#FFECCC"/>
<path d="M1108.55 271.053C1104.68 270.336 1100.92 273.787 1099.97 278.907C1099.02 284.024 1101.3 288.596 1105.17 289.313C1109.03 290.03 1112.81 286.582 1113.76 281.462C1114.7 276.342 1112.42 271.77 1108.55 271.053Z" fill="#FFECCC"/>
<path d="M1067.13 272.822C1068.08 267.702 1065.8 263.13 1061.93 262.413C1058.07 261.696 1054.29 265.147 1053.34 270.267C1052.4 275.384 1054.68 279.956 1058.55 280.673C1062.41 281.39 1066.18 277.939 1067.13 272.822Z" fill="#FFECCC"/>
<path d="M1209.51 408.079C1213.7 405.514 1214.3 398.863 1210.86 393.247C1207.42 387.633 1201.21 385.149 1197.03 387.712C1192.85 390.277 1192.24 396.931 1195.68 402.547C1199.12 408.161 1205.33 410.642 1209.51 408.079Z" fill="#FFECCC"/>
<path d="M1238.09 404.193C1237.8 404.078 1237.53 403.968 1237.35 403.845C1233.42 401.254 1226.15 399.821 1218.55 404.332L1218.26 404.508C1210.84 409.055 1208.71 415.939 1209.19 420.867C1209.2 421.036 1209.16 421.292 1209.13 421.56C1209.08 421.875 1209.03 422.195 1209.03 422.52C1208.95 425.902 1209.83 429.123 1211.5 431.585C1213.28 434.202 1215.73 435.671 1218.4 435.73C1219.48 435.753 1220.47 435.492 1221.35 434.954C1223.15 433.846 1224.18 431.813 1225.38 429.458C1226.14 427.958 1226.92 426.412 1227.97 424.973C1228.09 424.824 1228.69 424.353 1229.74 423.708C1230.99 422.943 1231.95 422.505 1232.18 422.451C1233.92 422.218 1235.6 422.275 1237.23 422.326C1239.73 422.41 1242.09 422.487 1243.91 421.368C1244.69 420.89 1245.32 420.219 1245.79 419.374C1248.36 414.715 1245.35 408.105 1239.07 404.639C1238.75 404.465 1238.42 404.326 1238.09 404.193Z" fill="#FFECCC"/>
<path d="M1225.65 398.193C1229.83 395.63 1230.43 388.977 1226.99 383.36C1223.55 377.746 1217.35 375.263 1213.16 377.825C1208.98 380.39 1208.38 387.044 1211.82 392.66C1215.26 398.275 1221.46 400.758 1225.65 398.193Z" fill="#FFECCC"/>
<path d="M1234.9 385.326C1231.55 387.382 1231.06 392.468 1233.78 396.91C1236.5 401.347 1241.25 403.215 1244.61 401.162C1247.96 399.109 1248.45 394.02 1245.73 389.581C1243.01 385.142 1238.25 383.273 1234.9 385.326Z" fill="#FFECCC"/>
<path d="M1205.3 414.356C1202.58 409.915 1197.83 408.046 1194.47 410.102C1191.12 412.155 1190.62 417.244 1193.35 421.683C1196.07 426.122 1200.82 427.991 1204.18 425.935C1207.53 423.882 1208.02 418.793 1205.3 414.356Z" fill="#FFECCC"/>
<path d="M1089.85 519.122C1092.34 523.351 1098.98 524.073 1104.66 520.73C1110.33 517.386 1112.92 511.227 1110.43 506.998C1107.94 502.771 1101.3 502.052 1095.62 505.395C1089.95 508.736 1087.36 514.895 1089.85 519.122Z" fill="#FFECCC"/>
<path d="M1093.24 547.763C1093.36 547.479 1093.47 547.21 1093.6 547.026C1096.26 543.15 1097.82 535.903 1093.44 528.223L1093.27 527.931C1088.85 520.433 1082.01 518.182 1077.07 518.574C1076.9 518.587 1076.65 518.546 1076.38 518.502C1076.06 518.449 1075.75 518.4 1075.42 518.387C1072.04 518.257 1068.81 519.078 1066.31 520.707C1063.67 522.432 1062.15 524.856 1062.05 527.529C1062.01 528.607 1062.25 529.6 1062.77 530.486C1063.85 532.314 1065.86 533.381 1068.2 534.618C1069.68 535.401 1071.22 536.212 1072.64 537.283C1072.78 537.411 1073.24 538.012 1073.87 539.075C1074.61 540.337 1075.04 541.309 1075.08 541.542C1075.29 543.283 1075.2 544.965 1075.12 546.593C1075 549.089 1074.88 551.444 1075.96 553.285C1076.43 554.076 1077.09 554.719 1077.92 555.2C1082.54 557.852 1089.2 554.952 1092.77 548.733C1092.95 548.421 1093.1 548.091 1093.24 547.763Z" fill="#FFECCC"/>
<path d="M1099.45 535.427C1101.94 539.653 1108.58 540.375 1114.26 537.032C1119.94 533.691 1122.53 527.529 1120.04 523.305C1117.54 519.076 1110.9 518.354 1105.23 521.697C1099.55 525.041 1096.96 531.197 1099.45 535.427Z" fill="#FFECCC"/>
<path d="M1112.16 544.906C1110.16 541.519 1105.08 540.936 1100.6 543.58C1096.11 546.222 1094.16 550.945 1096.15 554.332C1098.15 557.719 1103.23 558.305 1107.71 555.663C1112.2 553.019 1114.15 548.296 1112.16 544.906Z" fill="#FFECCC"/>
<path d="M1083.65 514.808C1088.14 512.164 1090.09 507.441 1088.09 504.054C1086.1 500.667 1081.02 500.081 1076.53 502.725C1072.05 505.367 1070.1 510.09 1072.09 513.48C1074.09 516.867 1079.16 517.45 1083.65 514.808Z" fill="#FFECCC"/>
<path d="M1235.17 641.203C1233.3 645.737 1236.72 651.474 1242.8 653.995C1248.89 656.515 1255.36 654.876 1257.24 650.342C1259.12 645.811 1255.69 640.072 1249.61 637.553C1243.53 635.031 1237.05 636.669 1235.17 641.203Z" fill="#FFECCC"/>
<path d="M1214.34 661.143C1214.64 661.069 1214.92 660.997 1215.14 660.989C1219.84 660.78 1226.57 657.661 1230.06 649.546L1230.2 649.231C1233.53 641.193 1231.2 634.371 1227.92 630.666C1227.81 630.538 1227.69 630.31 1227.56 630.07C1227.42 629.786 1227.26 629.501 1227.07 629.235C1225.15 626.458 1222.54 624.369 1219.74 623.357C1216.77 622.282 1213.93 622.533 1211.73 624.059C1210.84 624.673 1210.2 625.467 1209.8 626.417C1208.99 628.375 1209.35 630.628 1209.77 633.234C1210.04 634.893 1210.31 636.608 1210.31 638.385C1210.3 638.577 1210.09 639.309 1209.62 640.448C1209.06 641.802 1208.54 642.724 1208.38 642.903C1207.11 644.111 1205.72 645.056 1204.37 645.972C1202.3 647.373 1200.35 648.696 1199.53 650.67C1199.18 651.517 1199.06 652.431 1199.18 653.389C1199.84 658.67 1206.17 662.244 1213.28 661.358C1213.64 661.315 1213.99 661.23 1214.34 661.143Z" fill="#FFECCC"/>
<path d="M1227.93 658.685C1226.05 663.217 1229.48 668.956 1235.56 671.475C1241.64 673.997 1248.12 672.358 1250 667.827C1251.88 663.291 1248.46 657.554 1242.37 655.032C1236.29 652.513 1229.81 654.152 1227.93 658.685Z" fill="#FFECCC"/>
<path d="M1228 674.534C1229.51 670.899 1226.92 666.496 1222.11 664.502C1217.3 662.51 1212.35 663.795 1210.85 667.428C1209.34 671.058 1211.93 675.469 1216.74 677.46C1221.55 679.452 1226.5 678.167 1228 674.534Z" fill="#FFECCC"/>
<path d="M1234.88 633.654C1239.7 635.645 1244.64 634.36 1246.15 630.728C1247.65 627.095 1245.06 622.689 1240.25 620.695C1235.44 618.703 1230.5 619.989 1228.99 623.621C1227.49 627.254 1230.08 631.662 1234.88 633.654Z" fill="#FFECCC"/>
<path d="M816.893 260.058C820.452 263.437 827.036 262.298 831.57 257.521C836.104 252.744 836.895 246.109 833.336 242.731C829.778 239.354 823.193 240.493 818.66 245.27C814.126 250.047 813.335 256.681 816.893 260.058Z" fill="#FFECCC"/>
<path d="M828.042 286.656C828.081 286.349 828.116 286.06 828.188 285.847C829.676 281.388 829.176 273.992 822.851 267.817L822.607 267.581C816.294 261.594 809.093 261.315 804.457 263.055C804.298 263.114 804.042 263.142 803.773 263.176C803.453 263.212 803.133 263.252 802.821 263.329C799.534 264.136 796.651 265.818 794.703 268.068C792.637 270.456 791.851 273.203 792.486 275.802C792.742 276.849 793.252 277.737 793.997 278.446C795.535 279.905 797.768 280.374 800.351 280.919C801.994 281.265 803.694 281.623 805.353 282.258C805.527 282.34 806.139 282.793 807.032 283.64C808.095 284.649 808.768 285.468 808.878 285.681C809.554 287.296 809.935 288.937 810.307 290.524C810.872 292.959 811.41 295.255 812.959 296.727C813.624 297.357 814.436 297.795 815.373 298.025C820.539 299.302 826.143 294.679 827.866 287.716C827.953 287.368 827.999 287.009 828.042 286.656Z" fill="#FFECCC"/>
<path d="M830.62 273.083C834.178 276.46 840.76 275.323 845.294 270.546C849.828 265.769 850.621 259.133 847.063 255.757C843.502 252.378 836.918 253.517 832.384 258.294C827.85 263.071 827.059 269.706 830.62 273.083Z" fill="#FFECCC"/>
<path d="M845.442 278.694C842.588 275.988 837.547 276.828 833.963 280.604C830.379 284.38 829.806 289.459 832.658 292.168C835.51 294.874 840.553 294.034 844.137 290.258C847.721 286.482 848.294 281.403 845.442 278.694Z" fill="#FFECCC"/>
<path d="M809.744 257.62C813.328 253.843 813.901 248.764 811.049 246.057C808.197 243.351 803.154 244.189 799.57 247.967C795.986 251.742 795.413 256.822 798.265 259.528C801.116 262.236 806.16 261.396 809.744 257.62Z" fill="#FFECCC"/>
<path d="M1089.02 755.674C1092.58 759.053 1099.16 757.914 1103.7 753.137C1108.23 748.36 1109.02 741.724 1105.46 738.347C1101.91 734.971 1095.32 736.108 1090.79 740.884C1086.25 745.664 1085.46 752.297 1089.02 755.674Z" fill="#FFECCC"/>
<path d="M1100.17 782.272C1100.21 781.965 1100.24 781.676 1100.32 781.463C1101.8 777.004 1101.3 769.608 1094.98 763.433L1094.74 763.197C1088.42 757.21 1081.22 756.931 1076.58 758.671C1076.43 758.73 1076.17 758.758 1075.9 758.792C1075.58 758.828 1075.26 758.868 1074.95 758.945C1071.66 759.752 1068.78 761.434 1066.83 763.684C1064.77 766.072 1063.98 768.819 1064.61 771.418C1064.87 772.465 1065.38 773.353 1066.12 774.062C1067.66 775.521 1069.9 775.99 1072.48 776.535C1074.12 776.881 1075.82 777.239 1077.48 777.874C1077.65 777.956 1078.27 778.409 1079.16 779.256C1080.22 780.265 1080.9 781.084 1081.01 781.297C1081.68 782.912 1082.06 784.553 1082.43 786.14C1083 788.575 1083.54 790.871 1085.09 792.343C1085.75 792.973 1086.56 793.411 1087.5 793.641C1092.67 794.918 1098.27 790.295 1099.99 783.332C1100.08 782.984 1100.13 782.625 1100.17 782.272Z" fill="#FFECCC"/>
<path d="M1102.75 768.699C1106.31 772.076 1112.89 770.939 1117.42 766.162C1121.96 761.385 1122.75 754.749 1119.19 751.373C1115.63 747.994 1109.05 749.133 1104.51 753.91C1099.98 758.687 1099.19 765.322 1102.75 768.699Z" fill="#FFECCC"/>
<path d="M1081.87 753.236C1085.46 749.458 1086.03 744.379 1083.18 741.673C1080.33 738.967 1075.28 739.804 1071.7 743.583C1068.11 747.359 1067.54 752.438 1070.39 755.144C1073.24 757.85 1078.29 757.012 1081.87 753.236Z" fill="#FFECCC"/>
<path d="M825.597 44.5061C829.156 47.8843 835.74 46.7464 840.274 41.9689C844.808 37.192 845.599 30.5572 842.04 27.179C838.482 23.802 831.898 24.9406 827.364 29.7178C822.83 34.4953 822.039 41.129 825.597 44.5061Z" fill="#FFECCC"/>
<path d="M836.746 71.103C836.785 70.7971 836.821 70.5065 836.892 70.2958C838.38 65.8365 837.88 58.4392 831.555 52.2657L831.311 52.0302C824.998 46.0408 817.797 45.7638 813.161 47.5023C813.002 47.5615 812.746 47.5914 812.477 47.6232C812.157 47.6588 811.838 47.7 811.525 47.7773C808.238 48.5827 805.356 50.2654 803.407 52.5161C801.342 54.9043 800.556 57.6522 801.19 60.2486C801.446 61.2972 801.956 62.1852 802.701 62.8931C804.239 64.3528 806.472 64.8228 809.055 65.3681C810.698 65.7134 812.398 66.0705 814.057 66.7064C814.231 66.7891 814.843 67.2407 815.736 68.0891C816.799 69.0982 817.472 69.9174 817.582 70.1284C818.258 71.7443 818.639 73.3857 819.011 74.9722C819.576 77.4057 820.114 79.7028 821.663 81.174C822.328 81.8053 823.14 82.2418 824.077 82.4735C829.243 83.7517 834.847 79.1265 836.57 72.1644C836.657 71.8152 836.703 71.4573 836.746 71.103Z" fill="#FFECCC"/>
<path d="M839.324 57.5319C842.883 60.9083 849.464 59.7712 853.998 54.9937C858.532 50.2167 859.325 43.5815 855.767 40.2048C852.206 36.8264 845.622 37.9653 841.088 42.7426C836.554 47.52 835.763 54.1532 839.324 57.5319Z" fill="#FFECCC"/>
<path d="M854.147 63.1434C851.292 60.436 846.252 61.2759 842.668 65.0532C839.084 68.8289 838.51 73.9085 841.362 76.6147C844.214 79.3206 849.257 78.4829 852.841 74.7072C856.425 70.9299 856.998 65.8506 854.147 63.1434Z" fill="#FFECCC"/>
<path d="M818.447 42.0682C822.031 38.2909 822.605 33.2117 819.753 30.5055C816.901 27.799 811.858 28.6374 808.274 32.4147C804.69 36.1905 804.117 41.27 806.968 43.9765C809.82 46.6829 814.863 45.8437 818.447 42.0682Z" fill="#FFECCC"/>
<path d="M158.115 649.124C162.991 648.568 166.351 642.793 165.605 636.25C164.86 629.706 160.287 624.835 155.411 625.39C150.536 625.946 147.176 631.721 147.922 638.264C148.667 644.808 153.24 649.679 158.115 649.124Z" fill="#FFECCC"/>
<path d="M185.656 657.679C185.447 657.451 185.246 657.239 185.131 657.05C182.671 653.043 176.684 648.671 167.889 649.546L167.551 649.585C158.906 650.568 154.065 655.908 152.417 660.575C152.36 660.736 152.219 660.951 152.069 661.179C151.892 661.445 151.717 661.716 151.575 662.008C150.079 665.042 149.515 668.331 149.988 671.27C150.489 674.388 152.088 676.759 154.486 677.939C155.454 678.418 156.462 678.597 157.483 678.482C159.59 678.241 161.384 676.836 163.463 675.205C164.784 674.168 166.149 673.098 167.703 672.235C167.879 672.154 168.617 671.977 169.842 671.836C171.298 671.67 172.359 671.683 172.591 671.734C174.263 672.253 175.766 673.016 177.22 673.754C179.448 674.883 181.552 675.947 183.676 675.707C184.587 675.602 185.443 675.261 186.222 674.693C190.522 671.557 190.581 664.292 186.356 658.496C186.144 658.207 185.9 657.94 185.656 657.679Z" fill="#FFECCC"/>
<path d="M176.916 646.981C181.79 646.426 185.151 640.653 184.405 634.109C183.659 627.566 179.086 622.692 174.212 623.247C169.336 623.803 165.976 629.581 166.722 636.124C167.467 642.668 172.04 647.537 176.916 646.981Z" fill="#FFECCC"/>
<path d="M190.743 639.235C186.835 639.68 184.238 644.081 184.828 649.254C185.417 654.426 188.939 658.13 192.845 657.687C196.751 657.242 199.351 652.838 198.762 647.667C198.173 642.493 194.651 638.789 190.743 639.235Z" fill="#FFECCC"/>
<path d="M151.651 653.036C151.062 647.862 147.539 644.157 143.633 644.6C139.727 645.046 137.128 649.449 137.717 654.623C138.306 659.794 141.829 663.498 145.735 663.053C149.642 662.607 152.24 658.207 151.651 653.036Z" fill="#FFECCC"/>
<path d="M39.587 762.276C44.4631 761.72 47.8226 755.945 47.0771 749.402C46.3316 742.858 41.7587 737.987 36.8829 738.542C32.0082 739.098 28.6482 744.873 29.3939 751.416C30.1394 757.96 34.7123 762.831 39.587 762.276Z" fill="#FFECCC"/>
<path d="M67.1285 770.831C66.9191 770.604 66.7186 770.391 66.6029 770.202C64.1435 766.195 58.1557 761.823 49.3613 762.698L49.0234 762.737C40.378 763.72 35.5373 769.06 33.8892 773.727C33.8321 773.888 33.6908 774.103 33.5413 774.331C33.3641 774.597 33.1895 774.868 33.0469 775.16C31.5511 778.194 30.9872 781.483 31.4603 784.422C31.961 787.54 33.5605 789.911 35.9579 791.091C36.9266 791.57 37.9337 791.749 38.9557 791.634C41.0626 791.393 42.8563 789.988 44.9351 788.357C46.2565 787.32 47.6215 786.25 49.1752 785.388C49.3511 785.306 50.0896 785.129 51.3143 784.988C52.7705 784.822 53.8313 784.835 54.0635 784.886C55.7354 785.405 57.2384 786.168 58.6917 786.906C60.9202 788.035 63.0243 789.1 65.1478 788.859C66.0592 788.754 66.915 788.413 67.6945 787.845C71.9945 784.709 72.0537 777.444 67.8279 771.648C67.6159 771.359 67.3722 771.092 67.1285 770.831Z" fill="#FFECCC"/>
<path d="M58.3886 760.133C63.2623 759.578 66.6228 753.805 65.8771 747.261C65.1316 740.718 60.5582 735.844 55.6845 736.399C50.8079 736.955 47.4484 742.733 48.1939 749.276C48.9394 755.82 53.512 760.689 58.3886 760.133Z" fill="#FFECCC"/>
<path d="M72.2147 752.387C68.3069 752.832 65.7103 757.233 66.2996 762.406C66.8889 767.578 70.411 771.282 74.3173 770.839C78.2231 770.394 80.8233 765.99 80.2342 760.819C79.6446 755.645 76.1226 751.941 72.2147 752.387Z" fill="#FFECCC"/>
<path d="M33.1227 766.188C32.5334 761.014 29.0111 757.309 25.105 757.752C21.1985 758.198 18.5995 762.601 19.189 767.775C19.7783 772.946 23.3009 776.65 27.2073 776.205C31.1136 775.759 33.712 771.359 33.1227 766.188Z" fill="#FFECCC"/>
<path d="M290.862 769.152C293.092 764.78 290.13 758.789 284.262 755.799C278.395 752.812 271.808 753.935 269.578 758.308C267.351 762.678 270.313 768.668 276.183 771.658C282.05 774.648 288.635 773.522 290.862 769.152Z" fill="#FFECCC"/>
<path d="M313.198 750.907C312.893 750.955 312.604 751.007 312.384 750.999C307.684 750.838 300.733 753.418 296.612 761.234L296.456 761.536C292.506 769.29 294.285 776.271 297.267 780.224C297.37 780.36 297.472 780.595 297.577 780.846C297.702 781.14 297.833 781.437 297.997 781.716C299.702 784.637 302.134 786.926 304.845 788.152C307.722 789.455 310.579 789.43 312.888 788.083C313.823 787.538 314.529 786.798 314.995 785.882C315.958 783.992 315.776 781.719 315.563 779.087C315.428 777.413 315.287 775.683 315.428 773.911C315.456 773.722 315.717 773.007 316.275 771.909C316.941 770.604 317.535 769.723 317.706 769.559C319.063 768.453 320.53 767.619 321.946 766.815C324.116 765.578 326.167 764.413 327.137 762.509C327.554 761.692 327.741 760.788 327.698 759.826C327.457 754.509 321.431 750.449 314.266 750.774C313.907 750.792 313.549 750.848 313.198 750.907Z" fill="#FFECCC"/>
<path d="M299.453 752.292C301.681 747.919 298.721 741.932 292.851 738.941C286.984 735.951 280.397 737.075 278.17 741.448C275.942 745.82 278.904 751.808 284.772 754.798C290.639 757.788 297.226 756.664 299.453 752.292Z" fill="#FFECCC"/>
<path d="M300.623 736.484C298.839 739.988 301.077 744.584 305.715 746.949C310.354 749.312 315.387 748.419 317.171 744.916C318.956 741.414 316.721 736.814 312.082 734.451C307.443 732.088 302.41 732.982 300.623 736.484Z" fill="#FFECCC"/>
</g>
<defs>
<clipPath id="clip0_204_199">
<rect width="1280" height="773" fill="white"/>
</clipPath>
</defs>
</svg>
