<svg width="60" height="60" viewBox="0 0 60 60" fill="none" xmlns="http://www.w3.org/2000/svg">
<rect width="60" height="59.9998" rx="10" fill="white"/>
<path d="M23.4773 28.4128C26.8786 28.4128 29.645 24.7003 29.645 20.1357C29.645 15.5715 26.8785 11.8578 23.4773 11.8578C20.0771 11.8578 17.3103 15.5714 17.3103 20.1357C17.3103 24.7003 20.0771 28.4128 23.4773 28.4128Z" fill="#0056B3"/>
<path d="M41.7711 36.4645C41.6446 36.2922 41.5233 36.1297 41.4585 35.9899C40.0794 33.0379 36.2991 29.5578 30.1746 29.4712L29.939 29.4699C23.9086 29.4699 20.1564 32.7658 18.6552 35.8517C18.6033 35.9572 18.4893 36.0942 18.3684 36.239C18.2255 36.4087 18.084 36.5824 17.9631 36.7711C16.6949 38.744 16.0483 40.9652 16.1437 43.0252C16.2437 45.2121 17.1593 46.9688 18.7175 47.9708C19.3471 48.3752 20.0264 48.579 20.7391 48.579C22.2088 48.579 23.5544 47.7512 25.1137 46.7925C26.105 46.1815 27.1291 45.551 28.2665 45.0792C28.394 45.0372 28.9164 44.973 29.7706 44.973C30.7865 44.973 31.516 45.0634 31.6719 45.1172C32.7822 45.6074 33.7574 46.2504 34.7005 46.871C36.1464 47.8239 37.5116 48.7232 38.9928 48.7232C39.6285 48.7232 40.2447 48.5554 40.826 48.2252C44.033 46.4032 44.6439 41.4043 42.1886 37.0825C42.0654 36.8656 41.9185 36.6632 41.7711 36.4645Z" fill="#0056B3"/>
<path d="M36.592 28.4128C39.9916 28.4128 42.7588 24.7003 42.7588 20.1357C42.7588 15.5715 39.9916 11.8578 36.592 11.8578C33.1904 11.8578 30.424 15.5714 30.424 20.1357C30.424 24.7003 33.1904 28.4128 36.592 28.4128Z" fill="#0056B3"/>
<path d="M46.7208 24.1625C43.9949 24.1625 41.8615 26.9895 41.8615 30.5986C41.8615 34.206 43.9962 37.0334 46.7208 37.0334C49.4453 37.0334 51.5813 34.206 51.5813 30.5986C51.5813 26.9896 49.4466 24.1625 46.7208 24.1625Z" fill="#0056B3"/>
<path d="M18.7194 30.5986C18.7194 26.9896 16.5847 24.1625 13.8599 24.1625C11.135 24.1625 9 26.9896 9 30.5986C9 34.206 11.135 37.0334 13.8599 37.0334C16.5848 37.0334 18.7194 34.206 18.7194 30.5986Z" fill="#0056B3"/>
</svg>
