<svg width="55" height="50" viewBox="0 0 55 50" fill="none" xmlns="http://www.w3.org/2000/svg">
<path d="M7.47783 48.7384C7.47783 48.7384 7.42781 50 8.63035 50C10.1268 50 22.4939 49.9829 22.4939 49.9829L22.5148 38.327C22.5148 38.327 22.3189 36.4068 24.1341 36.4068H29.8884C32.0371 36.4068 31.9058 38.327 31.9058 38.327L31.8808 49.9466C31.8808 49.9466 43.6103 49.9466 45.4526 49.9466C46.9782 49.9466 46.9094 48.377 46.9094 48.377V26.8828L27.7814 9.4278L7.47783 26.8849V48.7384Z" fill="#827397"/>
<path d="M0 25.2598C0 25.2598 1.72149 28.5186 5.48333 25.2598L27.9523 5.75632L49.0165 25.1379C53.3681 28.3582 55 25.1379 55 25.1379L27.9523 0L0 25.2598Z" fill="#827397"/>
<path d="M48.5038 5.71143H43.0872L43.1101 12.4535L48.5038 17.1514V5.71143Z" fill="#827397"/>
</svg>
