<svg width="106" height="90" viewBox="0 0 106 90" fill="none" xmlns="http://www.w3.org/2000/svg">
<path d="M105.801 86.5889L100.132 42.6957C100.022 41.7033 99.2431 40.7109 98.2428 40.3793L88.683 36.9607C87.7936 38.6146 86.9042 40.3793 86.0149 42.0342L94.5745 45.1221L99.4658 82.9497L79.1233 76.4431L77.678 54.1656C76.6777 54.6064 75.5657 54.8272 74.3429 54.8272C73.5644 54.8272 72.6759 54.7172 72.0082 54.4964L73.4535 76.5533L55.6673 82.9498L55.6681 44.9017L62.7824 42.0345L60.1144 36.961L53 39.9389L33.4359 31.8883C32.7691 31.6675 31.9906 31.5575 31.3236 31.7783L7.75751 40.3797C6.75724 40.7105 6.09041 41.5929 5.86787 42.6961L0.198854 86.5893C0.0879732 87.5817 0.421395 88.464 1.19913 89.1256C1.97763 89.7872 2.97788 89.898 3.86719 89.6772L29.3231 81.516L51.9999 89.6772C52.6668 89.898 53.3336 89.898 53.8896 89.6772L76.5664 81.516L102.022 89.6772C102.356 89.7872 102.578 89.7872 102.912 89.7872C103.579 89.7872 104.245 89.5664 104.69 89.1256C105.47 88.464 105.914 87.5817 105.803 86.5893L105.801 86.5889ZM26.766 76.4427L6.42349 82.9493L11.3148 45.1217L29.2117 38.7252L26.766 76.4427ZM50.1098 82.9493L32.3236 76.5528L34.7692 38.6149L50.1096 44.9016L50.1098 82.9493Z" fill="#5f5b5b"/>
<path d="M72.342 47.8791C73.2314 49.6439 75.7878 49.6439 76.6773 47.8791C76.6773 47.8791 86.7932 28.2485 89.1272 23.6166C91.4619 18.9846 91.5727 13.8012 89.1272 8.94872C85.1254 0.897368 75.232 -2.30049 67.1173 1.77984C59.0025 5.86017 55.8902 15.8963 59.8922 23.6162C63.8932 31.3367 72.342 47.8787 72.342 47.8787V47.8791ZM74.5651 8.83844C78.9003 8.83844 82.3461 12.2571 82.3461 16.5582C82.3461 20.8592 78.9003 24.2779 74.5651 24.2779C70.2298 24.2779 66.784 20.8592 66.784 16.5582C66.784 12.3679 70.2298 8.83844 74.5651 8.83844V8.83844Z" fill="#5f5b5b"/>
</svg>
