<svg width="50" height="50" viewBox="0 0 50 50" fill="none" xmlns="http://www.w3.org/2000/svg">
<path d="M12.7451 20.7176C14.866 20.7176 16.9391 20.1236 18.7025 19.0108C20.4659 17.898 21.8403 16.3164 22.6519 14.4658C23.4635 12.6153 23.6759 10.579 23.2621 8.61453C22.8484 6.65002 21.8271 4.84551 20.3275 3.42918C18.8278 2.01285 16.9172 1.04831 14.8371 0.65755C12.757 0.266785 10.601 0.46734 8.6416 1.23385C6.68222 2.00036 5.00751 3.29841 3.82925 4.96384C2.65099 6.62926 2.02209 8.58728 2.02209 10.5903C2.02209 13.2762 3.15184 15.8521 5.1628 17.7514C7.17376 19.6506 9.90121 20.7176 12.7451 20.7176ZM12.7451 6.24999C13.6541 6.24999 14.5426 6.50455 15.2983 6.98146C16.054 7.45838 16.6431 8.13624 16.9909 8.92932C17.3387 9.7224 17.4297 10.5951 17.2524 11.437C17.0751 12.2789 16.6374 13.0523 15.9947 13.6593C15.352 14.2663 14.5331 14.6797 13.6417 14.8472C12.7502 15.0146 11.8262 14.9287 10.9865 14.6002C10.1467 14.2717 9.42901 13.7154 8.92404 13.0016C8.41907 12.2878 8.14955 11.4487 8.14955 10.5903C8.14955 9.43916 8.63372 8.33519 9.49556 7.52123C10.3574 6.70727 11.5263 6.24999 12.7451 6.24999Z" fill="#827397"/>
<path d="M37.2549 29.3981C35.1341 29.3981 33.0609 29.9921 31.2975 31.1049C29.5341 32.2177 28.1597 33.7994 27.3481 35.6499C26.5365 37.5004 26.3242 39.5367 26.7379 41.5012C27.1517 43.4657 28.1729 45.2702 29.6726 46.6865C31.1722 48.1029 33.0829 49.0674 35.1629 49.4582C37.243 49.8489 39.3991 49.6484 41.3584 48.8819C43.3178 48.1154 44.9925 46.8173 46.1708 45.1519C47.349 43.4865 47.9779 41.5284 47.9779 39.5254C47.9779 36.8395 46.8482 34.2636 44.8372 32.3644C42.8263 30.4651 40.0988 29.3981 37.2549 29.3981ZM37.2549 43.8657C36.346 43.8657 35.4575 43.6112 34.7017 43.1343C33.946 42.6573 33.357 41.9795 33.0091 41.1864C32.6613 40.3933 32.5703 39.5206 32.7476 38.6787C32.9249 37.8368 33.3626 37.0634 34.0053 36.4564C34.648 35.8494 35.4669 35.436 36.3583 35.2686C37.2498 35.1011 38.1738 35.1871 39.0136 35.5156C39.8533 35.8441 40.571 36.4004 41.076 37.1141C41.581 37.8279 41.8505 38.667 41.8505 39.5254C41.8505 40.6766 41.3663 41.7805 40.5045 42.5945C39.6426 43.4084 38.4737 43.8657 37.2549 43.8657Z" fill="#827397"/>
<path d="M48.7133 1.21527C48.46 0.975551 48.1591 0.785365 47.8279 0.655602C47.4967 0.525839 47.1417 0.459045 46.7831 0.459045C46.4246 0.459045 46.0695 0.525839 45.7383 0.655602C45.4071 0.785365 45.1063 0.975551 44.853 1.21527L1.28681 42.3611C0.781283 42.8483 0.49571 43.5019 0.490238 44.184C0.489418 44.6939 0.648892 45.1926 0.948451 45.6168C1.24801 46.041 1.67417 46.3717 2.17292 46.5669C2.67167 46.7621 3.22057 46.8132 3.75005 46.7135C4.27952 46.6138 4.76575 46.3679 5.1471 46.0069L48.7133 4.8611C48.9671 4.6219 49.1685 4.33776 49.3059 4.02496C49.4433 3.71216 49.514 3.37683 49.514 3.03818C49.514 2.69954 49.4433 2.36421 49.3059 2.05141C49.1685 1.73861 48.9671 1.45447 48.7133 1.21527Z" fill="#827397"/>
</svg>
