<svg width="160" height="48" viewBox="0 0 160 48" fill="none" xmlns="http://www.w3.org/2000/svg">
<path d="M24.7318 26.5202C24.2898 24.916 22.9003 23.9001 20.9885 23.7074C20.8224 23.6907 20.6607 23.6826 20.5032 23.6826C18.8414 23.6826 17.6589 24.5875 16.983 25.8241C16.2767 24.5335 15.0712 23.6963 13.3136 23.6963C13.1972 23.6963 13.0784 23.7 12.9572 23.7074C11.209 23.8149 9.70728 24.7896 9.23414 26.6896C8.38305 30.1074 12.4115 33.6012 16.983 37C21.8446 33.6242 25.6375 29.8087 24.7318 26.5202Z" fill="#827397"/>
<path d="M21.6736 12.0002C21.6165 12.0009 21.5578 12.0035 21.4994 12.0077C19.1774 12.3815 17.9005 14.6709 17.7156 16.6898C17.4452 18.5217 18.311 20.8763 20.4684 21.2868C20.7812 21.3423 21.1065 21.3169 21.4124 21.2395C24.0103 20.4274 25.1727 17.5587 24.7972 15.1826C24.6881 13.6479 23.4473 11.9791 21.6736 12.0002Z" fill="#827397"/>
<path d="M11.829 12.0984C10.3852 12.1314 9.26047 13.4968 9.03166 14.7803C8.54934 17.3231 9.78994 20.4827 12.6312 21.2867C12.8974 21.3407 13.1727 21.3463 13.4415 21.3075C15.3619 21.0091 16.1754 19.0016 16.0951 17.381C16.0373 15.2432 14.8462 12.7712 12.4651 12.1702C12.2475 12.1163 12.0353 12.0937 11.829 12.0984Z" fill="#827397"/>
<path d="M29.388 19.3207C26.8901 19.46 25.1777 21.7838 24.9336 23.9536C24.6031 25.5186 25.4978 27.6117 27.4129 27.7366C30.0834 27.7058 31.9051 25.0454 31.9809 22.7561C32.1498 21.2421 31.1932 19.4043 29.388 19.3207Z" fill="#827397"/>
<path d="M4.69391 19.8363C3.63125 19.8278 2.58615 20.4213 2.23883 21.4284C1.31242 24.1226 3.17284 27.5348 6.23339 28.1011C7.51073 28.3049 8.63311 27.3902 8.94981 26.2898C9.62095 23.9362 8.24235 21.2031 5.90928 20.1347C5.52925 19.9358 5.1098 19.8396 4.69391 19.8363Z" fill="#827397"/>
<path d="M47.5704 21.952H44.4664V36H39.9224V21.952H37.9064V18.272H39.9224V17.376C39.9224 15.2 40.541 13.6 41.7784 12.576C43.0157 11.552 44.8824 11.072 47.3784 11.136V14.912C46.2904 14.8907 45.533 15.072 45.1064 15.456C44.6797 15.84 44.4664 16.5333 44.4664 17.536V18.272H47.5704V21.952ZM67.2096 18.272V36H62.6976V33.76C62.1216 34.528 61.3643 35.136 60.4256 35.584C59.5083 36.0107 58.5056 36.224 57.4176 36.224C56.031 36.224 54.8043 35.936 53.7376 35.36C52.671 34.7627 51.8283 33.8987 51.2096 32.768C50.6123 31.616 50.3136 30.2507 50.3136 28.672V18.272H54.7936V28.032C54.7936 29.44 55.1456 30.528 55.8496 31.296C56.5536 32.0427 57.5136 32.416 58.7296 32.416C59.967 32.416 60.9376 32.0427 61.6416 31.296C62.3456 30.528 62.6976 29.44 62.6976 28.032V18.272H67.2096ZM76.1099 21.024C76.6859 20.0853 77.4325 19.3493 78.3499 18.816C79.2885 18.2827 80.3552 18.016 81.5499 18.016V22.72H80.3659C78.9579 22.72 77.8912 23.0507 77.1659 23.712C76.4619 24.3733 76.1099 25.5253 76.1099 27.168V36H71.6299V18.272H76.1099V21.024ZM89.0474 12.32V36H84.5674V12.32H89.0474ZM101.346 36.288C99.639 36.288 98.103 35.9147 96.7376 35.168C95.3723 34.4 94.295 33.3227 93.5056 31.936C92.7376 30.5493 92.3536 28.9493 92.3536 27.136C92.3536 25.3227 92.7483 23.7227 93.5376 22.336C94.3483 20.9493 95.447 19.8827 96.8336 19.136C98.2203 18.368 99.767 17.984 101.474 17.984C103.18 17.984 104.727 18.368 106.114 19.136C107.5 19.8827 108.588 20.9493 109.378 22.336C110.188 23.7227 110.594 25.3227 110.594 27.136C110.594 28.9493 110.178 30.5493 109.346 31.936C108.535 33.3227 107.426 34.4 106.018 35.168C104.631 35.9147 103.074 36.288 101.346 36.288ZM101.346 32.384C102.156 32.384 102.914 32.192 103.618 31.808C104.343 31.4027 104.919 30.8053 105.346 30.016C105.772 29.2267 105.986 28.2667 105.986 27.136C105.986 25.4507 105.538 24.16 104.642 23.264C103.767 22.3467 102.69 21.888 101.41 21.888C100.13 21.888 99.0523 22.3467 98.1776 23.264C97.3243 24.16 96.8976 25.4507 96.8976 27.136C96.8976 28.8213 97.3136 30.1227 98.1456 31.04C98.999 31.936 100.066 32.384 101.346 32.384ZM118.36 21.024C118.936 20.0853 119.683 19.3493 120.6 18.816C121.539 18.2827 122.605 18.016 123.8 18.016V22.72H122.616C121.208 22.72 120.141 23.0507 119.416 23.712C118.712 24.3733 118.36 25.5253 118.36 27.168V36H113.88V18.272H118.36V21.024ZM136.641 18.016C138.753 18.016 140.46 18.688 141.761 20.032C143.063 21.3547 143.713 23.2107 143.713 25.6V36H139.233V26.208C139.233 24.8 138.881 23.7227 138.177 22.976C137.473 22.208 136.513 21.824 135.297 21.824C134.06 21.824 133.079 22.208 132.353 22.976C131.649 23.7227 131.297 24.8 131.297 26.208V36H126.817V18.272H131.297V20.48C131.895 19.712 132.652 19.1147 133.569 18.688C134.508 18.24 135.532 18.016 136.641 18.016Z" fill="#827397"/>
</svg>
