<svg width="140" height="55" viewBox="0 0 140 55" fill="none" xmlns="http://www.w3.org/2000/svg">
<path d="M137.429 49.839H126.629L126.63 27.4776C126.63 26.7994 126.372 26.1473 125.911 25.6652L102.133 0.79335C101.177 -0.207171 99.6257 -0.207171 98.6705 0.79335L85.2018 14.8842L71.7318 0.79335C71.2733 0.314946 70.65 0.0413818 69.9992 0.0413818C69.3509 0.0413818 68.7275 0.314936 68.2666 0.79335L54.7979 14.8842L41.3292 0.79335C40.3704 -0.207171 38.8217 -0.207171 37.864 0.79335L14.087 25.6677C13.6261 26.1499 13.3693 26.8007 13.3693 27.4802V49.839H2.56792C1.21505 49.839 0.120117 50.9869 0.120117 52.3996C0.120117 53.8161 1.21624 54.964 2.56792 54.964H137.429C138.784 54.964 139.877 53.8161 139.877 52.3996C139.877 50.9844 138.785 49.839 137.431 49.839H137.429ZM70 6.22907L81.7365 18.5101L74.8921 25.6674C74.4312 26.1496 74.1733 26.8004 74.1733 27.4799V49.8386L65.8234 49.8374V27.4786C65.8234 26.8004 65.5703 26.1483 65.1094 25.6662L58.2637 18.5088L70 6.22907ZM18.2673 28.5402L39.5965 6.2278L60.9269 28.5402V49.8383L18.2667 49.8396L18.2673 28.5402ZM79.0725 28.5402L86.9257 20.3299C86.9257 20.3261 86.9305 20.3224 86.934 20.3211C86.9376 20.3174 86.9388 20.3099 86.9424 20.3086L100.402 6.22895L121.731 28.5414V49.8395H79.0737L79.0725 28.5402Z" fill="#5f5b5b"/>
</svg>
