<svg width="50" height="50" viewBox="0 0 50 50" fill="none" xmlns="http://www.w3.org/2000/svg">
<g clip-path="url(#clip0_25_449)">
<path d="M16.6667 0C12.9848 0 10 2.98477 10 6.66667V10C10 13.6819 12.9848 16.6667 16.6667 16.6667C20.3486 16.6667 23.3333 13.6819 23.3333 10V6.66667C23.3333 2.98477 20.3486 0 16.6667 0Z" fill="#827397"/>
<path d="M33.3333 0C29.6514 0 26.6666 2.98477 26.6666 6.66667V10C26.6666 13.6819 29.6514 16.6667 33.3333 16.6667C37.0153 16.6667 40 13.6819 40 10V6.66667C40 2.98477 37.0153 0 33.3333 0Z" fill="#827397"/>
<path d="M6.66667 16.6667C2.98477 16.6667 0 19.6515 0 23.3334V25C0 28.6819 2.98477 31.6667 6.66667 31.6667C10.3486 31.6667 13.3333 28.6819 13.3333 25V23.3334C13.3333 19.6515 10.3486 16.6667 6.66667 16.6667Z" fill="#827397"/>
<path d="M43.3333 16.6667C39.6513 16.6667 36.6666 19.6515 36.6666 23.3334V25C36.6666 28.6819 39.6513 31.6667 43.3333 31.6667C47.0153 31.6667 50 28.6819 50 25V23.3334C50 19.6515 47.0153 16.6667 43.3333 16.6667Z" fill="#827397"/>
<path d="M32.0425 25.9298C28.3932 21.4984 21.607 21.4984 17.9576 25.9298L8.23149 37.74C4.20472 42.6297 7.68292 50 14.0173 50C14.9223 50 15.815 49.7893 16.6245 49.3847L17.8234 48.785C22.3412 46.526 27.6589 46.526 32.1768 48.785L33.3757 49.3847C34.1851 49.7893 35.0777 50 35.9827 50C42.3171 50 45.7954 42.6297 41.7687 37.74L32.0425 25.9298Z" fill="#827397"/>
</g>
<defs>
<clipPath id="clip0_25_449">
<rect width="50" height="50" fill="white"/>
</clipPath>
</defs>
</svg>
