<svg width="60" height="60" viewBox="0 0 60 60" fill="none" xmlns="http://www.w3.org/2000/svg">
<path d="M25.4243 0.177505C17.2866 0.180972 9.64255 4.06827 4.86232 10.6335C0.0815454 17.1994 -1.25857 25.6495 1.25769 33.3643C3.77466 41.0799 9.84267 47.1286 17.5825 49.6353C25.3218 52.1412 33.7967 50.8023 40.3807 46.0337L53.0432 58.6587C54.051 59.6635 55.5205 60.0559 56.8975 59.6884C58.2745 59.3202 59.3496 58.2482 59.7191 56.8752C60.0877 55.5022 59.694 54.0371 58.6863 53.0323L46.0238 40.4073C49.7222 35.3391 51.404 29.0838 50.7454 22.8507C50.0861 16.6176 47.1332 10.8498 42.456 6.66155C37.7796 2.47327 31.7108 0.162912 25.4253 0.176759L25.4243 0.177505ZM25.4243 42.9231C20.7967 42.9231 16.3588 41.0904 13.0866 37.8279C9.81437 34.5653 7.97626 30.1406 7.97626 25.5266C7.97626 20.9127 9.81437 16.4879 13.0866 13.2254C16.3588 9.96283 20.7967 8.13017 25.4243 8.13017C30.052 8.13017 34.4898 9.96283 37.7621 13.2254C41.0343 16.4879 42.8724 20.9127 42.8724 25.5266C42.8668 30.1385 41.0274 34.5605 37.7558 37.8217C34.485 41.0835 30.05 42.9176 25.4243 42.9231V42.9231Z" fill="#5f5b5b"/>
</svg>
